<svg width="16" height="19" viewBox="0 0 16 19" fill="none" xmlns="http://www.w3.org/2000/svg">
<path fill-rule="evenodd" clip-rule="evenodd" d="M2.4 3.48366C1.95817 3.48366 1.6 3.84998 1.6 4.30185V15.7564C1.6 16.2083 1.95817 16.5746 2.4 16.5746H13.6C14.0418 16.5746 14.4 16.2083 14.4 15.7564V4.30185C14.4 3.84998 14.0418 3.48366 13.6 3.48366H2.4ZM0 4.30185C0 2.94624 1.07452 1.8473 2.4 1.8473H13.6C14.9255 1.8473 16 2.94624 16 4.30185V15.7564C16 17.112 14.9255 18.2109 13.6 18.2109H2.4C1.07452 18.2109 0 17.112 0 15.7564V4.30185Z" fill="#9F2241"/>
<path fill-rule="evenodd" clip-rule="evenodd" d="M11.2 0.210938C11.6418 0.210938 12 0.57725 12 1.02912V4.30185C12 4.75372 11.6418 5.12003 11.2 5.12003C10.7582 5.12003 10.4 4.75372 10.4 4.30185V1.02912C10.4 0.57725 10.7582 0.210938 11.2 0.210938Z" fill="#9F2241"/>
<path fill-rule="evenodd" clip-rule="evenodd" d="M4.8 0.210938C5.24183 0.210938 5.6 0.57725 5.6 1.02912V4.30185C5.6 4.75372 5.24183 5.12003 4.8 5.12003C4.35817 5.12003 4 4.75372 4 4.30185V1.02912C4 0.57725 4.35817 0.210938 4.8 0.210938Z" fill="#9F2241"/>
<path fill-rule="evenodd" clip-rule="evenodd" d="M0 7.57457C0 7.1227 0.358172 6.75639 0.8 6.75639H15.2C15.6418 6.75639 16 7.1227 16 7.57457C16 8.02644 15.6418 8.39276 15.2 8.39276H0.8C0.358172 8.39276 0 8.02644 0 7.57457Z" fill="#9F2241"/>
</svg>
