<svg width="25" height="36" viewBox="0 0 25 36" fill="none" xmlns="http://www.w3.org/2000/svg">
    <path d="M23.475 5.108a3.47 3.47 0 0 0-1.134-.772 3.426 3.426 0 0 0-1.339-.269h-3.966a4.668 4.668 0 0 0-1.512-2.905A4.53 4.53 0 0 0 12.5 0a4.53 4.53 0 0 0-3.025 1.162 4.668 4.668 0 0 0-1.511 2.905H3.997a3.47 3.47 0 0 0-2.473 1.041A3.583 3.583 0 0 0 .5 7.62v16.698c0 .93.359 1.824 1 2.488.64.664 2.428 1.065 2.428 1.065h5.714v2.636c.002.639.237 1.254.659 1.727.422.473 1.002.77 1.627.835V36h1.143v-2.93a2.529 2.529 0 0 0 1.627-.835 2.606 2.606 0 0 0 .659-1.727v-2.636h5.714a3.472 3.472 0 0 0 2.428-1.065c.641-.664 1-1.557 1-2.487V7.62a3.58 3.58 0 0 0-.264-1.36 3.534 3.534 0 0 0-.76-1.152zM4.54 24.346V8.172H20.46v16.174H4.54zm18.817-.028c0 .634-.249 1.243-.69 1.691-.442.449-1.04.7-1.665.701H14.785a.567.567 0 0 0-.404.17.585.585 0 0 0-.167.41v3.217c0 .332-.115.654-.324.91-.208.255-.498.429-.82.491V25.59h8a.601.601 0 0 0 .434-.182.622.622 0 0 0 .179-.44V7.551a.63.63 0 0 0-.18-.44.61.61 0 0 0-.432-.182H3.928a.603.603 0 0 0-.433.182.622.622 0 0 0-.179.44v17.417a.63.63 0 0 0 .18.44.611.611 0 0 0 .432.182h8v6.318a1.402 1.402 0 0 1-.82-.492 1.443 1.443 0 0 1-.323-.909v-3.216a.586.586 0 0 0-.167-.41.567.567 0 0 0-.404-.17c-2.552 0-4.535.006-5.714 0h-.503a2.336 2.336 0 0 1-1.665-.702 2.412 2.412 0 0 1-.69-1.69V7.62c0-.634.249-1.242.69-1.691.442-.449 1.04-.7 1.665-.7H8.5a.567.567 0 0 0 .404-.17.585.585 0 0 0 .167-.411c0-.924.361-1.81 1.004-2.464a3.401 3.401 0 0 1 2.425-1.02c.909 0 1.78.367 2.424 1.02a3.512 3.512 0 0 1 1.004 2.464c0 .154.06.301.167.41.108.11.253.17.405.17h4.502c.625 0 1.223.252 1.665.701.441.449.69 1.057.69 1.691v16.698z" fill="#0e7b77"/>
    <path d="M12.5 2a2 2 0 1 0 0 4 2 2 0 0 0 0-4zm0 3a1 1 0 1 1 0-2 1 1 0 0 1 0 2zM11.5 16.059a6.084 6.084 0 0 0-.54-2.493L9.046 9.35a.592.592 0 0 0-.222-.254.609.609 0 0 0-.875.254l-1.915 4.22a6.073 6.073 0 0 0-.534 2.49c0 .78.316 1.528.878 2.08a3.03 3.03 0 0 0 2.122.86 3.03 3.03 0 0 0 2.12-.86c.563-.552.88-1.3.88-2.08zm-4.8 0c0-.694.148-1.38.434-2.014l1.366-3.01 1.364 3.007c.286.635.435 1.322.435 2.017 0 .468-.19.916-.527 1.247-.337.331-.795.517-1.272.517-.478 0-.936-.186-1.273-.517A1.747 1.747 0 0 1 6.7 16.06zM10.5 21h-2v1h2v-1zM19.5 21h-8v1h8v-1zM19.5 19h-7v1h7v-1z" fill="#0e7b77"/>
</svg>
