<svg width="36" height="33" viewBox="0 0 36 33" fill="none" xmlns="http://www.w3.org/2000/svg">
    <path d="M35.298 26.82h-1.57v-3.198a.703.703 0 0 0-.703-.703c-1.277 0-1.95-.305-2.881-.727-1.038-.47-2.33-1.055-4.817-1.329-1.374-.15-2.54-.062-3.52.16a137.94 137.94 0 0 0-.416-3.655c-.319-2.604-.648-5.296-.648-7.233 0-.656.07-1.33.209-2.006a3.025 3.025 0 0 0-.352-2.145c3.363.217 6.184.792 7.512 1.1l-3.024 6.38a.71.71 0 0 0-.068.301c0 .101.015 1.013.504 1.952.476.915 1.486 2.006 3.59 2.006 2.24 0 3.962-1.685 3.962-3.958 0-.1-.022-.2-.063-.291l-3.258-7.156a.71.71 0 0 0-.452-.386c-.182-.051-3.947-1.082-8.85-1.367.293-.453.464-.992.464-1.57V2.97A2.907 2.907 0 0 0 18.013.066h-.024a2.907 2.907 0 0 0-2.904 2.904v.024c0 .579.17 1.118.463 1.57-4.902.286-8.667 1.317-8.85 1.368a.712.712 0 0 0-.451.386l-3.258 7.156a.712.712 0 0 0-.063.291c0 .1.013 1.007.482 1.942.46.92 1.438 2.016 3.48 2.016 2.254 0 4.094-1.629 4.094-3.958a.71.71 0 0 0-.068-.301L7.89 7.084a47.857 47.857 0 0 1 7.527-1.1 2.998 2.998 0 0 0-.367 2.145c.14.675.21 1.35.21 2.006 0 1.936-.33 4.628-.649 7.232-.16 1.31-.313 2.562-.416 3.656-.98-.222-2.146-.31-3.52-.16-2.487.274-3.779.86-4.817 1.33-.93.421-1.604.726-2.881.726a.703.703 0 0 0-.703.703v3.198H.704a.703.703 0 0 0-.703.703v3.293c0 .389.315.703.703.703h14.454c.353 0 .506.21.708.454.386.464 1.059.96 1.79.96h.55a2.17 2.17 0 0 0 1.851-1.048c.117-.195.485-.366.787-.366h3.768a.703.703 0 1 0 0-1.406h-3.768c-.657 0-1.56.328-1.992 1.049a.757.757 0 0 1-.646.365h-.55c-.153 0-.45-.16-.68-.42a2.17 2.17 0 0 0-1.818-.994H1.408v-1.887h33.187v1.887h-3.806a.703.703 0 1 0 0 1.406h4.509a.703.703 0 0 0 .703-.703v-3.293a.703.703 0 0 0-.703-.703zm-3.98-11.705c-.42.809-1.142 1.202-2.204 1.202-1.78 0-2.38-1.086-2.584-1.849h5.032c-.052.201-.13.426-.244.647zm-4.483-2.053 2.267-4.784 2.178 4.784h-4.445zM16.49 2.97a1.5 1.5 0 0 1 1.498-1.497h.024a1.5 1.5 0 0 1 1.498 1.497v.024a1.5 1.5 0 0 1-1.498 1.498h-.024a1.5 1.5 0 0 1-1.498-1.498V2.97zm-7.26 12.098c-.438.84-1.204 1.249-2.343 1.249-1.22 0-2.138-.65-2.448-1.849h5.023c-.05.187-.125.394-.232.6zm-4.51-2.006L6.9 8.278l2.267 4.784H4.722zm11.286 4.476c.324-2.646.659-5.38.659-7.403 0-.751-.08-1.521-.238-2.29-.204-.981.59-1.947 1.587-1.947 1.005.009 1.76.968 1.56 1.948a11.396 11.396 0 0 0-.239 2.289c0 2.023.335 4.758.659 7.404.174 1.425.34 2.782.44 3.923A7.13 7.13 0 0 0 18 23.128a7.13 7.13 0 0 0-2.434-1.666c.1-1.142.265-2.499.44-3.924zM3.68 24.296c1.168-.102 1.944-.454 2.758-.823.997-.451 2.126-.963 4.39-1.212 2.288-.251 5.022.233 6.47 2.212v2.347H3.68v-2.524zm15.024 2.524v-2.345c1.466-1.971 4.169-2.467 6.47-2.214 2.264.25 3.393.761 4.39 1.212.814.37 1.59.72 2.758.823v2.524H18.704z" fill="#0e7b77"/>
    <path d="M28.382 30.548a.708.708 0 0 0-.917-.38.709.709 0 0 0-.38.918.71.71 0 0 0 .918.38.708.708 0 0 0 .38-.918z" fill="#0e7b77"/>
</svg>
