<svg width="39" height="39" viewBox="0 0 39 39" fill="none" xmlns="http://www.w3.org/2000/svg">
    <g filter="url(#ip2dfd3t3a)" fill="#0E7B77">
        <path d="M17.24 18.492a.586.586 0 1 0 0-1.172.586.586 0 0 0 0 1.172zM7.514 19.664a.586.586 0 1 0 0-1.172.586.586 0 0 0 0 1.172z"/>
        <path d="M29.897 16.181V8.18a1.76 1.76 0 0 0-1.758-1.758h-5.625V4.664a1.76 1.76 0 0 0-1.758-1.758h-7.03a1.76 1.76 0 0 0-1.759 1.758v1.758H6.342A1.76 1.76 0 0 0 4.584 8.18V23.766a2.933 2.933 0 0 0 2.93 2.93h18.281v5.624a.586.586 0 0 0 .952.458l2.564-2.051 2.564 2.05a.585.585 0 0 0 .952-.457v-6.968a5.247 5.247 0 0 0 1.757-3.93 5.28 5.28 0 0 0-4.687-5.24zM13.139 4.664c0-.323.263-.586.586-.586h7.031c.323 0 .586.263.586.586v1.758H13.14V4.664zm-6.797 2.93H28.14c.323 0 .586.262.586.586v4.017l-9.11 3.994a2.939 2.939 0 0 0-2.374-1.214c-.949 0-1.83.462-2.374 1.214l-9.11-3.994V8.18c0-.324.262-.586.585-.586zm9.298 9.585a1.763 1.763 0 0 1 1.6-1.03c.688 0 1.316.404 1.602 1.03a1.76 1.76 0 0 1-1.6 2.485 1.76 1.76 0 0 1-1.602-2.485zm-8.126 8.344a1.76 1.76 0 0 1-1.758-1.757v-10.29l8.627 3.783a2.933 2.933 0 0 0 2.857 3.577 2.933 2.933 0 0 0 2.858-3.577l8.627-3.783v2.705a5.28 5.28 0 0 0-4.688 5.24c0 1.514.638 2.93 1.758 3.931v.171H7.515zm22.163 3.996a.586.586 0 0 0-.732 0l-1.978 1.582v-4.956a5.29 5.29 0 0 0 2.344.55 5.29 5.29 0 0 0 2.344-.55V31.1l-1.978-1.582zm-.366-3.996a4.1 4.1 0 0 1-4.102-4.101 4.106 4.106 0 0 1 4.102-4.102 4.106 4.106 0 0 1 4.102 4.102 4.1 4.1 0 0 1-4.102 4.101z"/>
        <path d="M29.311 18.492a2.933 2.933 0 0 0-2.93 2.93 2.933 2.933 0 0 0 2.93 2.93 2.933 2.933 0 0 0 2.93-2.93 2.933 2.933 0 0 0-2.93-2.93zm0 4.688a1.76 1.76 0 0 1-1.758-1.758c0-.97.789-1.758 1.758-1.758.97 0 1.758.789 1.758 1.758a1.76 1.76 0 0 1-1.758 1.758zM9.858 23.18H8.1v-1.758a.586.586 0 1 0-1.172 0v2.344c0 .323.263.586.586.586h2.344a.586.586 0 0 0 0-1.172z"/>
    </g>
    <defs>
        <filter id="ip2dfd3t3a" x=".584" y=".906" width="38" height="38" filterUnits="userSpaceOnUse" color-interpolation-filters="sRGB">
            <feFlood flood-opacity="0" result="BackgroundImageFix"/>
            <feColorMatrix in="SourceAlpha" values="0 0 0 0 0 0 0 0 0 0 0 0 0 0 0 0 0 0 127 0" result="hardAlpha"/>
            <feOffset dy="2"/>
            <feGaussianBlur stdDeviation="2"/>
            <feComposite in2="hardAlpha" operator="out"/>
            <feColorMatrix values="0 0 0 0 0.054902 0 0 0 0 0.482353 0 0 0 0 0.466667 0 0 0 0.42 0"/>
            <feBlend in2="BackgroundImageFix" result="effect1_dropShadow_933_45999"/>
            <feBlend in="SourceGraphic" in2="effect1_dropShadow_933_45999" result="shape"/>
        </filter>
    </defs>
</svg>
