<svg width="31" height="31" viewBox="0 0 31 31" fill="none" xmlns="http://www.w3.org/2000/svg">
    <path d="M13.156 16.491a.586.586 0 1 0 0-1.172.586.586 0 0 0 0 1.172zM3.43 17.663a.586.586 0 1 0 0-1.172.586.586 0 0 0 0 1.172z" fill="#0e7b77"/>
    <path d="M25.812 14.18V6.18a1.76 1.76 0 0 0-1.757-1.758H18.43V2.663A1.76 1.76 0 0 0 16.672.905H9.64a1.76 1.76 0 0 0-1.758 1.758v1.758H2.258A1.76 1.76 0 0 0 .5 6.179V21.765a2.933 2.933 0 0 0 2.93 2.93h18.28v5.624a.586.586 0 0 0 .953.458l2.564-2.051 2.563 2.05a.585.585 0 0 0 .952-.457v-6.968a5.247 5.247 0 0 0 1.758-3.93 5.28 5.28 0 0 0-4.688-5.24zM9.055 2.663c0-.323.262-.586.586-.586h7.03c.324 0 .587.263.587.586v1.758H9.055V2.663zm-6.797 2.93h21.797c.323 0 .586.263.586.586v4.017l-9.11 3.994a2.939 2.939 0 0 0-2.375-1.214c-.949 0-1.83.462-2.374 1.214l-9.11-3.994V6.179c0-.323.263-.586.586-.586zm9.297 9.585a1.763 1.763 0 0 1 1.601-1.03 1.763 1.763 0 0 1 1.758 1.757 1.76 1.76 0 0 1-1.758 1.758 1.76 1.76 0 0 1-1.6-2.485zM3.43 23.522a1.76 1.76 0 0 1-1.758-1.757v-10.29l8.627 3.783a2.933 2.933 0 0 0 2.857 3.577 2.933 2.933 0 0 0 2.858-3.578l8.627-3.782v2.705a5.28 5.28 0 0 0-4.688 5.24c0 1.513.637 2.93 1.758 3.931v.171H3.43zm22.163 3.996a.586.586 0 0 0-.733 0L22.883 29.1v-4.956a5.29 5.29 0 0 0 2.344.55c.815 0 1.62-.191 2.343-.55V29.1l-1.977-1.582zm-.366-3.996a4.1 4.1 0 0 1-4.102-4.101 4.106 4.106 0 0 1 4.102-4.102 4.106 4.106 0 0 1 4.101 4.102 4.1 4.1 0 0 1-4.101 4.101z" fill="#0e7b77"/>
    <path d="M25.227 16.491a2.933 2.933 0 0 0-2.93 2.93 2.933 2.933 0 0 0 2.93 2.93 2.933 2.933 0 0 0 2.93-2.93 2.933 2.933 0 0 0-2.93-2.93zm0 4.688a1.76 1.76 0 0 1-1.758-1.758c0-.97.788-1.758 1.758-1.758.969 0 1.757.789 1.757 1.758a1.76 1.76 0 0 1-1.757 1.758zM5.773 21.179H4.016V19.42a.586.586 0 1 0-1.172 0v2.344c0 .323.262.585.586.585h2.343a.586.586 0 1 0 0-1.171z" fill="#0e7b77"/>
</svg>
