<svg width="31" height="26" viewBox="0 0 31 26" fill="none" xmlns="http://www.w3.org/2000/svg">
    <path d="M28.513 4.337h-2.602a.542.542 0 1 0 0 1.084h2.602c.498 0 .904.406.904.904v17.35a.896.896 0 0 1-.277.65.896.896 0 0 1-.623.253h-.037c-.48-.018-.87-.438-.87-.938V8.493a1.99 1.99 0 0 0-1.989-1.987h-.903V1.987A1.99 1.99 0 0 0 22.73 0H8.272a1.99 1.99 0 0 0-1.988 1.987v2.35H5.38a1.99 1.99 0 0 0-1.987 1.988v1.301a.542.542 0 1 0 1.084 0V6.325c0-.498.405-.904.903-.904h.904v3.253H2.49a1.99 1.99 0 0 0-1.988 1.988v13.012a1.99 1.99 0 0 0 1.988 1.988H28.514c.518 0 1.005-.196 1.38-.557.391-.378.607-.886.607-1.43V6.324a1.99 1.99 0 0 0-1.988-1.988zM7.368 1.987c0-.498.406-.903.904-.903H22.73c.498 0 .904.405.904.903v4.519h-3.18a3.969 3.969 0 0 0-2.892 1.256 2.881 2.881 0 0 1-2.099.912H7.368V1.987zm-4.88 22.59a.905.905 0 0 1-.903-.903V10.662c0-.498.406-.903.904-.903h12.975a3.969 3.969 0 0 0 2.891-1.257 2.881 2.881 0 0 1 2.1-.912h5.167c.498 0 .903.405.903.903V23.64c0 .338.08.658.224.938H2.489z" fill="#2DBCB6"/>
    <path d="M21.284 2.168H9.718a.542.542 0 1 0 0 1.084h11.566a.542.542 0 1 0 0-1.084zM21.284 4.337H9.718a.542.542 0 1 0 0 1.084h11.566a.542.542 0 1 0 0-1.084zM15.682 6.505H9.718a.542.542 0 0 0-.542.56.557.557 0 0 0 .564.525h5.942a.542.542 0 0 0 0-1.085zM17.308 14.457h-.542v-.542c0-.897-.73-1.626-1.626-1.626h-.723c-.897 0-1.627.73-1.627 1.626v.542h-.542c-.897 0-1.626.73-1.626 1.627v.723c0 .896.73 1.626 1.626 1.626h.542v.542c0 .897.73 1.627 1.627 1.627h.723a.542.542 0 1 0 0-1.085h-.723a.543.543 0 0 1-.542-.542v-1.084c0-.3-.243-.542-.543-.542h-1.084a.543.543 0 0 1-.542-.542v-.723c0-.3.243-.542.542-.542h1.084c.3 0 .543-.243.543-.543v-1.084c0-.299.243-.542.542-.542h.723c.299 0 .542.243.542.542V15c0 .3.243.543.542.543h1.084c.3 0 .543.243.543.542v.723a.543.543 0 0 1-.543.542h-1.084c-.3 0-.542.242-.542.542v1.084a.542.542 0 1 0 1.084 0v-.542h.542c.897 0 1.627-.73 1.627-1.626v-.723c0-.897-.73-1.627-1.627-1.627z" fill="#2DBCB6"/>
</svg>
