<svg width="61" height="55" viewBox="0 0 61 55" fill="none" xmlns="http://www.w3.org/2000/svg">
    <g filter="url(#pbztjtzwca)">
        <path d="M5 5.208A5.208 5.208 0 0 1 10.21 0h39.583A5.208 5.208 0 0 1 55 5.208v39.584A5.208 5.208 0 0 1 49.792 50H10.209A5.208 5.208 0 0 1 5 44.792V5.208z" fill="#0E7B77"/>
    </g>
    <path d="M39.477 14.75c-3.95-4.14-10.021-4.777-14.512-2.282a.804.804 0 0 0 .78 1.405c4.108-2.282 9.276-1.465 12.566 1.983 3.394 3.6 3.776 8.968 1.15 12.948-3.617 5.493-11.428 6.321-16.111 1.637-3.156-3.155-4.07-8.243-1.79-12.383a.804.804 0 0 0-1.41-.775 12.074 12.074 0 0 0 2.062 14.294c5.397 5.397 14.41 4.462 18.591-1.889a12.076 12.076 0 0 0-1.326-14.938z" fill="#fff" stroke="#0E7B77" stroke-width=".4"/>
    <path d="m28.045 29.155-.09.044-.005-.01.095-.034zm0 0-.033-.094-.007.003c.012.03.026.061.04.091zm-.146-.51.033.094-.018.007a1.675 1.675 0 0 1-.015-.101zm0 0-.099.012.003.022.096-.034zm.1-.011-.015-.125-1.762.617.033.095-.033-.095a.365.365 0 1 0 .241.69l1.615-.566.106-.037-.049-.101a1.494 1.494 0 0 1-.136-.478zM33.734 28.551l-.118-.041-.015.124c-.02.169-.065.33-.136.478l-.05.1.107.038 1.645.575a.365.365 0 0 0 .466-.224.365.365 0 0 0-.226-.464l-1.673-.586zM34.933 21.145l-.032-.095.037-.012-.005.107zm0 0 .1.004.002-.038-.102.034zm-.008-.662-.066.022.194.041-.031-.095-.097.032zM26.64 21.241l.14.047-.008-.146a39.863 39.863 0 0 1-.023-.565l-.002-.07-.067-.022-.102-.034c-.57-.19-1.178.258-1.178.85v.768c0 .843.537 1.588 1.337 1.855l.141.047.155.052-.024-.162a14.883 14.883 0 0 1-.077-.59l-.007-.057-.053-.023a1.22 1.22 0 0 1-.742-1.122V21.3a.166.166 0 0 1 .217-.156l.294.098z" fill="#fff" stroke="#fff" stroke-width=".2"/>
    <path d="M28.25 26.76h.228l-.153-.167c-.156-.17-.301-.341-.437-.51l-.042-.053-.064.02a.362.362 0 0 0-.262.345v2.067a1.96 1.96 0 0 0 1.287 1.837l1.868.68a.367.367 0 0 0 .25 0l1.868-.68a1.96 1.96 0 0 0 1.287-1.837v-2.067a.362.362 0 0 0-.265-.347l-.064-.018-.042.052c-.135.168-.28.34-.437.51l-.152.168h.23v1.702c0 .513-.324.976-.806 1.151l-1.744.634-1.743-.634a1.23 1.23 0 0 1-.807-1.151V26.76z" fill="#fff" stroke="#fff" stroke-width=".2"/>
    <path d="M27.1 25.8c-.257-.387-.447-1.082-.583-2.1-.138-1.024-.223-2.39-.263-4.135a4.534 4.534 0 0 1 1.299-3.297M27.1 25.8l2.63 2.424a.266.266 0 0 0 .112.025h1.916a.263.263 0 0 0 .112-.025l.042.09c.45-.21.967-.649 1.431-1.122a10.64 10.64 0 0 0 1.146-1.38c.264-.39.458-1.088.597-2.109.14-1.026.226-2.395.265-4.142a4.536 4.536 0 0 0-1.3-3.296 4.513 4.513 0 0 0-3.25-1.366 4.51 4.51 0 0 0-3.25 1.368m-.451 9.533c.255.383.673.903 1.14 1.381.465.476.986.918 1.447 1.134L27.101 25.8zm.452-9.533.071.07m-.071-.07.071.07m0 0a4.434 4.434 0 0 0-1.27 3.225c.079 3.485.342 5.45.83 6.182l6.796-9.409A4.413 4.413 0 0 0 30.803 15a4.41 4.41 0 0 0-3.179 1.338zm.451.44a3.808 3.808 0 0 0-1.091 2.77c.037 1.643.118 2.958.241 3.938.062.49.134.896.215 1.216.083.322.173.551.268.694.264.397.657.87 1.07 1.29.406.41.823.76 1.15.934h1.745c.323-.17.733-.514 1.135-.921.41-.414.803-.887 1.078-1.294l-5.81-8.627zm0 0a3.784 3.784 0 0 1 2.728-1.148c1.034 0 2.002.407 2.726 1.147l-5.454.001zm6.547 2.768a3.81 3.81 0 0 0-1.093-2.769l1.093 2.77zm0 0c-.037 1.644-.118 2.96-.243 3.943m.243-3.943-.243 3.943m0 0a9.99 9.99 0 0 1-.22 1.22m.22-1.22-.22 1.22m0 0c-.084.322-.176.552-.273.696l.273-.697z" fill="#fff" stroke="#fff" stroke-width=".2"/>
    <path d="M41.535 12.465c-5.953-5.953-15.641-5.953-21.595 0-5.354 5.355-5.93 13.75-1.57 19.756l-.505.504a2.411 2.411 0 0 0-2.745.472l-3.941 3.942a4.014 4.014 0 0 0 0 5.682 4.014 4.014 0 0 0 5.682 0l3.942-3.941a2.411 2.411 0 0 0 .472-2.745l.504-.504c6.007 4.36 14.402 3.783 19.756-1.57 5.953-5.954 5.953-15.642 0-21.596zM19.667 37.743l-3.943 3.942a2.407 2.407 0 0 1-3.41 0 2.408 2.408 0 0 1 0-3.41l3.943-3.942a.804.804 0 0 1 1.136 0l2.273 2.274a.804.804 0 0 1 0 1.136zm.568-2.84-1.137-1.138.289-.288a15.405 15.405 0 0 0 1.136 1.136l-.288.29zm20.164-1.98c-5.326 5.326-13.953 5.371-19.323 0-5.363-5.362-5.331-13.99 0-19.322 5.327-5.326 13.995-5.327 19.322 0 5.327 5.328 5.327 13.996 0 19.323z" fill="#fff" stroke="#0E7B77" stroke-width=".4"/>
    <path d="M23.369 14.758a.805.805 0 1 0-1.136 1.136.805.805 0 0 0 1.136-1.136z" fill="#fff"/>
    <defs>
        <filter id="pbztjtzwca" x="-1" y="0" width="62" height="62" filterUnits="userSpaceOnUse" color-interpolation-filters="sRGB">
            <feFlood flood-opacity="0" result="BackgroundImageFix"/>
            <feColorMatrix in="SourceAlpha" values="0 0 0 0 0 0 0 0 0 0 0 0 0 0 0 0 0 0 127 0" result="hardAlpha"/>
            <feOffset dy="6"/>
            <feGaussianBlur stdDeviation="3"/>
            <feComposite in2="hardAlpha" operator="out"/>
            <feColorMatrix values="0 0 0 0 0.246458 0 0 0 0 0.676704 0 0 0 0 0.704167 0 0 0 0.3 0"/>
            <feBlend in2="BackgroundImageFix" result="effect1_dropShadow_933_42076"/>
            <feBlend in="SourceGraphic" in2="effect1_dropShadow_933_42076" result="shape"/>
        </filter>
    </defs>
</svg>
