<svg width="40" height="38" viewBox="0 0 40 38" fill="none" xmlns="http://www.w3.org/2000/svg">
    <path d="M0 0h37a3 3 0 0 1 3 3v32a3 3 0 0 1-3 3H0V0z" fill="#EEE"/>
    <path fill-rule="evenodd" clip-rule="evenodd" d="M14.4 12.484a.81.81 0 0 0-.8.818v11.454a.81.81 0 0 0 .8.819h11.2a.81.81 0 0 0 .8-.819V13.302a.81.81 0 0 0-.8-.818H14.4zm-2.4.818c0-1.356 1.075-2.455 2.4-2.455h11.2c1.325 0 2.4 1.1 2.4 2.455v11.454c0 1.356-1.075 2.455-2.4 2.455H14.4c-1.325 0-2.4-1.099-2.4-2.455V13.302z" fill="#9F2241"/>
    <path fill-rule="evenodd" clip-rule="evenodd" d="M23.2 9.21c.442 0 .8.367.8.82v3.272a.81.81 0 0 1-.8.818.81.81 0 0 1-.8-.818v-3.273a.81.81 0 0 1 .8-.818zM16.8 9.21c.442 0 .8.367.8.82v3.272a.81.81 0 0 1-.8.818.81.81 0 0 1-.8-.818v-3.273a.81.81 0 0 1 .8-.818zM12 16.575a.81.81 0 0 1 .8-.819h14.4c.442 0 .8.367.8.819a.81.81 0 0 1-.8.818H12.8a.81.81 0 0 1-.8-.818z" fill="#9F2241"/>
    <path d="M1.531.75v26.5" stroke="#EEE" stroke-width=".75"/>
</svg>
