<svg width="15" height="15" viewBox="0 0 15 15" fill="none" xmlns="http://www.w3.org/2000/svg">
<mask id="mask0_616_79153" style="mask-type:alpha" maskUnits="userSpaceOnUse" x="1" y="1" width="13" height="13">
<path d="M7.49968 8.56235L12.2181 13.2809C12.5113 13.5741 12.9877 13.5732 13.2802 13.2809C13.5732 12.9877 13.5734 12.512 13.28 12.2188L8.5618 7.50041L13.2802 2.78204C13.5732 2.48882 13.5732 2.01296 13.2802 1.71992C12.9869 1.42669 12.5113 1.42669 12.2181 1.71992L7.49968 6.43829L2.78132 1.71992C2.48809 1.42669 2.01242 1.42669 1.71938 1.71992C1.57276 1.86653 1.50036 2.05803 1.50054 2.25062C1.5 2.44357 1.57276 2.63543 1.71938 2.78204L6.43774 7.50041L1.71992 12.2181C1.57331 12.3648 1.49982 12.5571 1.5 12.7493C1.50036 12.9417 1.57331 13.1337 1.71974 13.2804C2.01278 13.5734 2.48863 13.5736 2.78186 13.2804L7.49968 8.56235Z" fill="#CCCCCC"/>
</mask>
<g mask="url(#mask0_616_79153)">
<rect width="15" height="15" fill="white"/>
<rect x="0.5" y="0.5" width="14" height="14" fill="#9D2449"/>
<rect x="0.5" y="0.5" width="14" height="14" stroke="black"/>
</g>
</svg>
