<svg width="32" height="40" viewBox="0 0 32 40" fill="none" xmlns="http://www.w3.org/2000/svg">
    <path d="M25.255 3.143a.74.74 0 0 1-.742.738.74.74 0 0 1-.743-.738V.739A.74.74 0 0 1 24.512 0c.41 0 .743.33.743.739v.463h3.017c.41 0 .743.33.743.738v26.913a.74.74 0 0 1-.743.74H16.867v1.326c0 .276.087.623.342.856.195.178.509.302.991.302H29.17c.775 0 1.333.235 1.724.575.546.475.731 1.129.731 1.651v.52c0 .258-.026.808-.351 1.326-.34.539-.957 1.005-2.089 1.005H7.756A3.603 3.603 0 0 1 4.229 40a3.603 3.603 0 0 1-2.549-1.05 3.564 3.564 0 0 1-1.056-2.534c0-.99.404-1.886 1.056-2.535a3.603 3.603 0 0 1 2.548-1.05 3.603 3.603 0 0 1 3.528 2.846h21.428c.495 0 .726-.142.83-.306.116-.185.125-.431.125-.549v-.519c0-.18-.056-.4-.22-.543-.14-.122-.375-.206-.75-.206H18.2c-.902 0-1.546-.285-1.995-.695-.614-.56-.823-1.336-.823-1.94v-1.327H3.976a.74.74 0 0 1-.743-.739V1.94a.74.74 0 0 1 .743-.738h3.017V.74A.74.74 0 0 1 7.736 0c.41 0 .742.33.742.739v2.404a.74.74 0 0 1-.742.738.74.74 0 0 1-.743-.738v-.464H4.718v25.436H27.53V2.679h-2.275v.464zM5.727 34.925a2.119 2.119 0 0 0-1.499-.617 2.12 2.12 0 0 0-1.498.617c-.384.381-.62.909-.62 1.49 0 .583.236 1.11.62 1.491a2.12 2.12 0 0 0 1.498.617c.586 0 1.116-.236 1.499-.617s.62-.908.62-1.49-.237-1.11-.62-1.491zm2.796-10.593a.74.74 0 0 1-.743-.738.74.74 0 0 1 .743-.739h15.202c.41 0 .743.331.743.739a.74.74 0 0 1-.743.738H8.523zm0-3.962a.74.74 0 0 1-.743-.739.74.74 0 0 1 .743-.738h15.202c.41 0 .743.33.743.738a.74.74 0 0 1-.743.739H8.523zm0-3.962a.74.74 0 0 1-.743-.739.74.74 0 0 1 .743-.739h15.202c.41 0 .743.331.743.74a.74.74 0 0 1-.743.738H8.523zm0-3.963a.74.74 0 0 1-.743-.738.74.74 0 0 1 .743-.738h15.202c.41 0 .743.33.743.738a.74.74 0 0 1-.743.738H8.523zm0-3.962a.74.74 0 0 1-.743-.738.74.74 0 0 1 .743-.74h15.202c.41 0 .743.332.743.74a.74.74 0 0 1-.743.738H8.523z" fill="#2E3192"/>
</svg>
