<svg width="11" height="15" viewBox="0 0 11 15" fill="none" xmlns="http://www.w3.org/2000/svg">
<path d="M0.54 14.2V12.46L6.1 7.18C6.56667 6.74 6.91333 6.35333 7.14 6.02C7.36667 5.68667 7.51333 5.38 7.58 5.1C7.66 4.80667 7.7 4.53333 7.7 4.28C7.7 3.64 7.48 3.14667 7.04 2.8C6.6 2.44 5.95333 2.26 5.1 2.26C4.42 2.26 3.8 2.38 3.24 2.62C2.69333 2.86 2.22 3.22667 1.82 3.72L0 2.32C0.546667 1.58667 1.28 1.02 2.2 0.62C3.13333 0.206667 4.17333 0 5.32 0C6.33333 0 7.21333 0.166667 7.96 0.5C8.72 0.82 9.3 1.28 9.7 1.88C10.1133 2.48 10.32 3.19333 10.32 4.02C10.32 4.47333 10.26 4.92667 10.14 5.38C10.02 5.82 9.79333 6.28667 9.46 6.78C9.12667 7.27333 8.64 7.82667 8 8.44L3.22 12.98L2.68 12H10.86V14.2H0.54Z" fill="white"/>
</svg>
