<svg width="11" height="15" viewBox="0 0 11 15" fill="none" xmlns="http://www.w3.org/2000/svg">
<path d="M5.26 14.2C4.27333 14.2 3.30667 14.06 2.36 13.78C1.42667 13.4867 0.64 13.0867 0 12.58L1.12 10.56C1.62667 10.9733 2.24 11.3067 2.96 11.56C3.68 11.8133 4.43333 11.94 5.22 11.94C6.15333 11.94 6.88 11.7533 7.4 11.38C7.92 10.9933 8.18 10.4733 8.18 9.82C8.18 9.18 7.94 8.67333 7.46 8.3C6.98 7.92667 6.20667 7.74 5.14 7.74H3.86V5.96L7.86 1.2L8.2 2.18H0.68V0H10.22V1.74L6.22 6.5L4.86 5.7H5.64C7.36 5.7 8.64667 6.08667 9.5 6.86C10.3667 7.62 10.8 8.6 10.8 9.8C10.8 10.5867 10.6 11.3133 10.2 11.98C9.8 12.6467 9.18667 13.1867 8.36 13.6C7.54667 14 6.51333 14.2 5.26 14.2Z" fill="white"/>
</svg>
