<?xml version="1.0" standalone="no"?>
<!DOCTYPE svg PUBLIC "-//W3C//DTD SVG 20010904//EN"
 "http://www.w3.org/TR/2001/REC-SVG-20010904/DTD/svg10.dtd">
<svg version="1.0" xmlns="http://www.w3.org/2000/svg"
 width="54.000000pt" height="51.000000pt" viewBox="0 0 54.000000 51.000000"
 preserveAspectRatio="xMidYMid meet">
<metadata>
Created by potrace 1.16, written by Peter Selinger 2001-2019
</metadata>
<g transform="translate(0.000000,51.000000) scale(0.100000,-0.100000)"
fill="#000000" stroke="none">
<path d="M54 482 c-18 -11 -34 -48 -34 -76 l0 -26 240 0 240 0 0 33 c0 34 -23
77 -42 77 -6 0 -17 -8 -24 -17 -13 -17 -13 -17 -14 0 0 14 -9 17 -45 17 -33 0
-45 -4 -45 -15 0 -8 -4 -15 -10 -15 -5 0 -10 7 -10 15 0 11 -12 15 -45 15 -36
0 -45 -3 -45 -17 -1 -17 -1 -17 -14 0 -8 11 -27 17 -51 17 -24 0 -43 -6 -51
-17 -13 -17 -13 -17 -14 0 0 18 -17 22 -36 9z"/>
<path d="M198 287 c-26 -17 -46 -35 -45 -39 1 -4 25 -23 52 -43 l50 -35 3 24
c3 22 6 23 31 16 16 -4 40 -15 54 -24 18 -13 27 -14 32 -6 11 18 -28 63 -74
85 -25 12 -41 27 -41 37 0 25 -8 23 -62 -15z"/>
</g>
</svg>
