<svg width="18" height="18" viewBox="0 0 18 18" fill="none" xmlns="http://www.w3.org/2000/svg">
<g clip-path="url(#clip0_453_1135)">
<path d="M17.7019 16.2963L13.2876 11.8765C15.5071 8.98765 15.2851 4.81482 12.6217 2.17284C11.1668 0.716049 9.29253 0 7.39363 0C5.49474 0 3.62051 0.716049 2.16552 2.17284C-0.719806 5.06173 -0.719806 9.75309 2.16552 12.642C3.62051 14.0988 5.49474 14.8148 7.39363 14.8148C8.97193 14.8148 10.5502 14.321 11.8573 13.3086L16.2962 17.7037C16.4935 17.9012 16.7401 18 17.0114 18C17.258 18 17.5293 17.9012 17.7266 17.7037C18.0965 17.3333 18.0965 16.6914 17.7019 16.2963ZM7.41583 12.8148C5.96084 12.8148 4.62915 12.2469 3.59339 11.2346C1.49721 9.1358 1.49721 5.7037 3.59339 3.58025C4.60449 2.5679 5.96084 2 7.41583 2C8.87082 2 10.2025 2.5679 11.2383 3.58025C12.274 4.59259 12.8166 5.95062 12.8166 7.40741C12.8166 8.8642 12.2494 10.1975 11.2383 11.2346C10.2272 12.2716 8.84863 12.8148 7.41583 12.8148Z" fill="black"/>
</g>
<defs>
<clipPath id="clip0_453_1135">
<rect width="18" height="18" fill="white"/>
</clipPath>
</defs>
</svg>
