<svg width="24" height="24" viewBox="0 0 24 24" fill="none" xmlns="http://www.w3.org/2000/svg">
<path d="M1.26609 11.0139C1.48176 10.6912 1.78259 10.6074 2.14978 10.6074C6.35697 10.6154 10.5631 10.6097 14.7702 10.6188C15.0202 10.6188 15.1407 10.5385 15.2502 10.3088C15.7037 9.35568 16.4812 8.88831 17.481 8.90324C18.4587 8.91702 19.2263 9.37865 19.672 10.3134C19.7804 10.5419 19.8965 10.6303 20.1454 10.62C20.6873 10.597 21.2314 10.6142 21.7745 10.6119C22.1151 10.6108 22.4005 10.7245 22.6073 11.0173C22.9756 11.7545 22.3972 12.4022 21.7214 12.3436C21.164 12.2954 20.5988 12.3402 20.0381 12.3298C19.8766 12.3264 19.797 12.385 19.7273 12.5354C19.2584 13.5459 18.4753 14.0787 17.3981 14.0477C16.3695 14.0179 15.6329 13.4701 15.1994 12.4998C15.1374 12.3597 15.0556 12.331 14.9229 12.3321C14.1863 12.3367 13.4497 12.3344 12.7142 12.3344C9.22591 12.3344 5.73762 12.3344 2.24932 12.3344C1.35789 12.3344 1.02609 11.8889 1.26609 11.0139Z" fill="#9D2449"/>
<path d="M15.9901 19.218C14.0369 19.218 12.0848 19.2203 10.1316 19.2134C9.9392 19.2123 9.85404 19.2766 9.76556 19.4592C9.30325 20.4112 8.55229 20.9371 7.51708 20.9348C6.48187 20.9325 5.73533 20.4008 5.27302 19.45C5.19007 19.2789 5.11597 19.2111 4.92906 19.2134C3.98012 19.2238 3.03118 19.2192 2.08335 19.218C1.5392 19.2169 1.1709 18.8747 1.16537 18.3683C1.15984 17.8573 1.5403 17.4979 2.09219 17.4979C3.04113 17.4967 3.99007 17.4933 4.93791 17.5013C5.10823 17.5024 5.1945 17.4508 5.27081 17.2866C5.72537 16.3082 6.49183 15.7845 7.53035 15.7868C8.55671 15.7903 9.32206 16.3059 9.76556 17.2774C9.85736 17.4772 9.97127 17.5001 10.1493 17.5001C14.0457 17.4967 17.9421 17.4979 21.8386 17.4979C22.1781 17.4979 22.4446 17.6299 22.6161 17.9445C22.782 18.2511 22.7598 18.5509 22.5785 18.8379C22.4004 19.117 22.1383 19.2215 21.8209 19.2203C19.8765 19.2169 17.9333 19.218 15.9901 19.218Z" fill="#9D2449"/>
<path d="M14.2694 5.56173C13.9896 6.13704 13.6113 6.59752 13.0373 6.89608C11.7842 7.54718 10.3243 7.03273 9.69059 5.68345C9.67069 5.64211 9.64525 5.60307 9.62313 5.56173C9.58221 5.36651 9.42958 5.45149 9.33004 5.45149C6.90682 5.4469 4.4847 5.44804 2.06147 5.44689C1.56709 5.44689 1.20212 5.12192 1.16783 4.658C1.13023 4.14929 1.51843 3.7267 2.03603 3.7267C3.51032 3.72441 4.9835 3.72556 6.45778 3.72556C7.39788 3.72556 8.33686 3.71292 9.27695 3.73359C9.53576 3.73933 9.63972 3.63484 9.74811 3.41551C10.2071 2.48996 10.9658 2.00881 11.9535 2.0157C12.9334 2.02259 13.7009 2.48766 14.1466 3.42355C14.255 3.65206 14.3734 3.73244 14.6222 3.7313C17.0266 3.71981 19.4311 3.72441 21.8355 3.72441C22.1595 3.72441 22.4228 3.84154 22.5997 4.14125C22.7899 4.46508 22.7656 4.77742 22.5654 5.07943C22.3907 5.34469 22.133 5.44574 21.83 5.44574C19.4067 5.4446 16.9846 5.4446 14.5614 5.44919C14.4607 5.45149 14.307 5.36192 14.2694 5.56173Z" fill="#9D2449"/>
</svg>
