<svg width="25" height="25" viewBox="0 0 25 25" fill="none" xmlns="http://www.w3.org/2000/svg">
<g clip-path="url(#clip0_1145_1014)">
<path d="M16.9579 7.66011C16.2306 3.16032 14.504 0 12.5 0C10.496 0 8.76936 3.16032 8.03684 7.66011H16.9579ZM7.66011 12.5C7.66011 13.6197 7.7229 14.6923 7.82754 15.7231H17.1672C17.2719 14.6923 17.3347 13.6145 17.3347 12.5C17.3347 11.3855 17.2719 10.3077 17.1672 9.27689H7.82754C7.7229 10.3077 7.66011 11.3803 7.66011 12.5ZM24.0268 7.66011C22.5827 4.23818 19.6683 1.59062 16.0632 0.523232C17.2928 2.22897 18.1404 4.7928 18.5852 7.66011H24.0268ZM8.93156 0.523232C5.33173 1.59062 2.40686 4.23818 0.973211 7.66011H6.41482C6.85433 4.7928 7.70197 2.22897 8.93156 0.523232ZM24.5657 9.27166H18.784C18.8887 10.3286 18.9514 11.4117 18.9514 12.4948C18.9514 13.5779 18.8887 14.6609 18.784 15.7179H24.5605C24.8378 14.6871 24.9948 13.6093 24.9948 12.4948C24.9948 11.3803 24.8378 10.3077 24.5657 9.27166ZM6.04856 12.5C6.04856 11.4169 6.11134 10.3338 6.21599 9.27689H0.434282C0.162202 10.3077 0 11.3803 0 12.5C0 13.6197 0.162202 14.6923 0.434282 15.7231H6.21076C6.10611 14.6662 6.04856 13.5831 6.04856 12.5ZM8.03684 17.3399C8.76936 21.8397 10.4908 25 12.5 25C14.5092 25 16.2306 21.8397 16.9632 17.3399H8.03684ZM16.0684 24.4768C19.6683 23.4094 22.5879 20.7618 24.032 17.3399H18.5904C18.1457 20.2072 17.298 22.771 16.0684 24.4768ZM0.973211 17.3399C2.4121 20.7618 5.33173 23.4094 8.93679 24.4768C7.7072 22.771 6.85957 20.2072 6.41482 17.3399H0.973211Z" fill="#666666"/>
</g>
<defs>
<clipPath id="clip0_1145_1014">
<rect width="24.9948" height="25" fill="white"/>
</clipPath>
</defs>
</svg>
