<svg width="36" height="25" viewBox="0 0 36 25" fill="none" xmlns="http://www.w3.org/2000/svg">
    <g clip-path="url(#gg7ccnjkma)">
        <path d="M5.355 10.719a3.575 3.575 0 0 0 3.57-3.57 3.581 3.581 0 0 0-3.57-3.579 3.575 3.575 0 0 0-3.57 3.57 3.581 3.581 0 0 0 3.57 3.579zm25.008 0a3.575 3.575 0 0 0 3.57-3.57 3.575 3.575 0 0 0-3.57-3.57 3.57 3.57 0 1 0 0 7.14zm1.785 1.785h-3.57c-.98 0-1.872.399-2.518 1.036 2.247 1.235 3.85 3.459 4.192 6.105h3.682c.988 0 1.785-.797 1.785-1.786v-1.785a3.575 3.575 0 0 0-3.57-3.57zm-14.289 0a6.248 6.248 0 0 0 6.248-6.248C24.107 2.806 21.31 0 17.86 0a6.248 6.248 0 0 0-6.248 6.248 6.25 6.25 0 0 0 6.248 6.256zm4.288 1.785h-.462a8.794 8.794 0 0 1-3.826.893c-1.378 0-2.653-.335-3.825-.893h-.462A6.433 6.433 0 0 0 7.14 20.72v1.61a2.678 2.678 0 0 0 2.677 2.678h16.075a2.678 2.678 0 0 0 2.677-2.678v-1.61c.008-3.554-2.877-6.43-6.423-6.43zM9.659 13.54a3.547 3.547 0 0 0-2.518-1.036H3.57A3.575 3.575 0 0 0 0 16.074v1.785c0 .989.797 1.786 1.785 1.786H5.46a8.21 8.21 0 0 1 4.2-6.105z" fill="#666"/>
    </g>
    <defs>
        <clipPath id="gg7ccnjkma">
            <path fill="#fff" d="M0 0h35.719v25H0z"/>
        </clipPath>
    </defs>
</svg>
