<svg width="29" height="26" viewBox="0 0 29 26" fill="none" xmlns="http://www.w3.org/2000/svg">
    <path d="M10.652 20.71a.548.548 0 0 0-.986-.016l-.376.752c-.313.626-1.221.553-1.44-.105l-.82-2.463-.516 1.555a2.107 2.107 0 0 1-2.005 1.44h-.605a.782.782 0 1 1 0-1.565h.605a.555.555 0 0 0 .522-.376l.888-2.667a1.172 1.172 0 0 1 2.223 0l.678 2.036c.966-.788 2.641-.475 3.22.689a.562.562 0 0 0 .46.308v-4.009l6.247-6.206v-2.27H12.11a1.18 1.18 0 0 1-1.175-1.174V0h-9.76A1.17 1.17 0 0 0 0 1.174v22.657c0 .647.522 1.174 1.174 1.174h16.404c.648 0 1.175-.522 1.175-1.174v-1.952l-6.253-.01a2.1 2.1 0 0 1-1.848-1.16zm8.095-14.76c0-.308-.12-.606-.339-.825L13.628.34C13.407.12 13.11 0 12.797 0H12.5v6.247h6.247V5.95zM14.06 16.942v3.371h3.367l7.897-7.949-3.315-3.314-7.949 7.892zm13.701-8.774-1.555-1.555a1.244 1.244 0 0 0-1.76 0l-1.33 1.33 3.314 3.315 1.331-1.331a1.244 1.244 0 0 0 0-1.759z" fill="#666"/>
</svg>
