<svg width="36" height="25" viewBox="0 0 36 25" fill="none" xmlns="http://www.w3.org/2000/svg">
<path d="M5.86254 7.81004C8.01923 7.81004 9.76756 6.06171 9.76756 3.90502C9.76756 1.74834 8.01923 0 5.86254 0C3.70586 0 1.95752 1.74834 1.95752 3.90502C1.95752 6.06171 3.70586 7.81004 5.86254 7.81004Z" fill="#666666"/>
<path d="M10.5671 10.9053C9.85993 10.1981 8.88623 9.76758 7.81004 9.76758H3.90502C1.75265 9.76758 0 11.5202 0 13.6726V15.6302C0 16.7064 0.871199 17.5879 1.95764 17.5879H5.9754C6.36488 14.6873 8.10728 12.2479 10.5671 10.9053Z" fill="#666666"/>
<path d="M37.5333 12.2686C37.4923 11.9918 37.2566 11.7971 36.9798 11.7971H36.2316C36.0676 11.3359 35.8216 10.9156 35.5142 10.5569L35.8831 9.91119C36.0164 9.67545 35.9651 9.36797 35.7601 9.20398C35.3297 8.84525 34.8377 8.55827 34.3047 8.36353C34.0485 8.27128 33.7513 8.36353 33.618 8.60951L33.249 9.25523C32.7776 9.17323 32.2856 9.17323 31.8141 9.25523L31.4451 8.60951C31.3017 8.35328 31.0147 8.26103 30.7482 8.35328C30.2152 8.54802 29.7232 8.835 29.2928 9.19373C29.0775 9.36797 29.0263 9.6652 29.1698 9.90094L29.5388 10.5467C29.221 10.9054 28.9853 11.3359 28.8213 11.7868H28.0731C27.7964 11.7868 27.5606 11.9816 27.5196 12.2583C27.4274 12.822 27.4274 13.396 27.5196 13.9392C27.5606 14.2159 27.7964 14.4107 28.0731 14.4107H28.8213C28.9853 14.8719 29.2313 15.2921 29.5388 15.6509L29.1698 16.2966C29.0365 16.5323 29.0878 16.8398 29.2928 17.0038C29.7232 17.3625 30.2152 17.6495 30.7482 17.8442C31.0044 17.9365 31.3017 17.8442 31.4349 17.5982L31.8039 16.9525C32.2753 17.0345 32.7673 17.0345 33.2388 16.9525L33.6078 17.5982C33.741 17.834 34.0382 17.9365 34.2945 17.8442C34.8274 17.6495 35.3194 17.3625 35.7499 17.0038C35.9651 16.8295 36.0164 16.5323 35.8729 16.2966L35.5039 15.6509C35.8216 15.2921 36.0574 14.8616 36.2214 14.4107H36.9696C37.2463 14.4107 37.482 14.2159 37.523 13.9392C37.6255 13.3755 37.6255 12.8118 37.5333 12.2686ZM31.3324 14.3082C29.9897 12.5658 31.9781 10.5671 33.7308 11.9098C35.0632 13.6522 33.0748 15.6509 31.3324 14.3082Z" fill="#666666"/>
<path d="M27.6325 22.0465L26.1053 21.2881C26.2795 20.3349 26.2795 19.3612 26.1053 18.408L27.6325 17.6495C28.0937 17.3831 28.2679 16.8296 28.0834 16.3274C27.6837 15.2307 26.9048 14.2262 26.1771 13.3448C25.8388 12.9451 25.2546 12.8426 24.8036 13.1091L23.4815 13.8675C22.7538 13.2423 21.9133 12.7606 20.9909 12.4326V10.9054C20.9909 10.3725 20.6014 9.9215 20.0889 9.8395C18.9307 9.64476 17.7623 9.65501 16.6451 9.8395C16.1326 9.93175 15.7534 10.3827 15.7534 10.9054V12.4326C14.831 12.7503 13.9905 13.2526 13.2628 13.8675L11.9406 13.1091C11.4794 12.8426 10.9054 12.9451 10.5672 13.3448C9.82926 14.2262 9.06055 15.2307 8.65057 16.3274C8.46608 16.8193 8.67107 17.3831 9.12205 17.6393L10.6287 18.408C10.4545 19.3612 10.4545 20.3349 10.6287 21.2778L9.12205 22.0363C8.66082 22.3028 8.46608 22.8562 8.65057 23.3585C9.0503 24.4552 9.82926 25.4596 10.5672 26.341C10.9054 26.7408 11.4897 26.8433 11.9406 26.5768L13.2628 25.8183C13.9905 26.4435 14.831 26.9253 15.7534 27.2532V28.7804C15.7534 29.3134 16.1429 29.7643 16.6554 29.8463C17.8135 30.0411 18.982 30.0411 20.0992 29.8463C20.6116 29.7541 20.9909 29.3031 20.9909 28.7804V27.2635C21.9133 26.9458 22.7538 26.4435 23.4815 25.8286L24.8036 26.587C25.2649 26.8535 25.8388 26.751 26.1771 26.3513C26.915 25.4698 27.7042 24.4654 28.1039 23.3687C28.2884 22.8665 28.0937 22.3028 27.6325 22.0465ZM20.7756 22.2413C17.2806 24.9266 13.3038 20.9396 15.9891 17.4548C19.4739 14.7592 23.461 18.7462 20.7756 22.2413Z" fill="#666666"/>
</svg>
