<svg width="28" height="31" viewBox="0 0 28 31" fill="none" xmlns="http://www.w3.org/2000/svg">
    <path d="m18.598 22.723-4.194-4.194v-5.952c0-.1-.082-.182-.182-.182h-.596c-.1 0-.183.081-.183.182v5.807L9.218 22.61a.178.178 0 0 0 0 .251l.42.42c.07.07.183.07.252 0l3.962-3.961 4.068 4.069c.07.069.182.069.251 0l.421-.421a.165.165 0 0 0 .006-.245zM13.744 5.55a2.776 2.776 0 0 0 0-5.55 2.776 2.776 0 0 0 0 5.55zm2.078.704-1.036 4.15-.69-2.945.69-1.212h-2.078l.69 1.212-.69 2.945-1.036-4.15c-1.545.075-2.781 1.337-2.781 2.9v.905c0 .571.464 1.042 1.042 1.042h7.629c.571 0 1.042-.465 1.042-1.042v-.905a2.917 2.917 0 0 0-2.782-2.9zM4.854 24.449a2.776 2.776 0 1 0-.002-5.552 2.776 2.776 0 0 0 .002 5.552zm2.078.71-1.036 4.15-.69-2.945.69-1.212H3.817l.691 1.212-.69 2.945-1.037-4.15A2.904 2.904 0 0 0 0 28.058v.904c0 .572.465 1.043 1.042 1.043h7.629c.571 0 1.042-.465 1.042-1.043v-.904a2.912 2.912 0 0 0-2.781-2.9zM22.904 24.449a2.776 2.776 0 1 0-.001-5.552 2.776 2.776 0 0 0 .001 5.552zm2.079.71-1.036 4.15-.691-2.945.69-1.212h-2.078l.69 1.212-.69 2.945-1.036-4.15c-1.544.075-2.781 1.337-2.781 2.9v.904c0 .572.464 1.043 1.042 1.043h7.629c.571 0 1.042-.465 1.042-1.043v-.904a2.913 2.913 0 0 0-2.781-2.9z" fill="#666"/>
</svg>
