<svg width="14" height="15" viewBox="0 0 14 15" fill="none" xmlns="http://www.w3.org/2000/svg">
<g clip-path="url(#clip0_530_872)">
<path d="M7.41002 0.88V8.59C7.41002 9.08 7.01002 9.47 6.53002 9.47C6.04002 9.47 5.65002 9.07 5.65002 8.59V0.88C5.65002 0.39 6.04002 0 6.53002 0C7.01002 0 7.41002 0.39 7.41002 0.88Z" fill="#CCCCCB"/>
<path d="M8.19 1.65002V3.25002C10.14 3.94002 11.54 5.78002 11.54 7.96002C11.54 9.30002 11.02 10.56 10.07 11.51C9.12 12.46 7.86 12.98 6.52 12.98C5.18 12.98 3.92 12.46 2.97 11.51C2.03 10.56 1.51 9.30002 1.51 7.96002C1.51 6.62002 2.03 5.36002 2.98 4.41002C3.5 3.90002 4.11 3.52002 4.77 3.28002V1.68002C3.7 1.97002 2.72 2.54002 1.91 3.34002C0.68 4.58002 0 6.22002 0 7.96002C0 9.70002 0.68 11.34 1.91 12.58C3.14 13.81 4.78 14.49 6.53 14.49C8.27 14.49 9.91 13.81 11.15 12.58C12.38 11.35 13.06 9.71002 13.06 7.96002C13.06 4.94002 10.99 2.39002 8.19 1.65002Z" fill="#CCCCCB"/>
</g>
<defs>
<clipPath id="clip0_530_872">
<rect width="13.06" height="14.49" fill="white"/>
</clipPath>
</defs>
</svg>
