<svg width="35" height="24" viewBox="0 0 35 24" fill="none" xmlns="http://www.w3.org/2000/svg">
<g clip-path="url(#clip0_3108_7234)">
<path d="M34.8003 13.861L30.3983 21.4026C29.7033 22.601 28.425 23.328 27.0429 23.328H2.73225C1.6058 23.328 0.902762 22.1057 1.46998 21.139L5.87195 13.5974C6.56699 12.399 7.84524 11.672 9.22735 11.672H33.53C34.6645 11.664 35.3675 12.8863 34.8003 13.861ZM9.23533 9.72267H29.168V6.80667C29.168 5.19288 27.8658 3.89066 26.252 3.89066H16.5293L12.6387 0H2.916C1.30221 0 0 1.30221 0 2.916V19.8128L4.19425 12.6147C5.24081 10.8331 7.16617 9.72267 9.23533 9.72267Z" fill="#666666"/>
</g>
<defs>
<clipPath id="clip0_3108_7234">
<rect width="35" height="23.328" fill="white"/>
</clipPath>
</defs>
</svg>
