<svg width="29" height="25" viewBox="0 0 29 25" fill="none" xmlns="http://www.w3.org/2000/svg">
<g clip-path="url(#clip0_1145_1018)">
<path d="M13.2381 7.04565L15.8867 7.74183C16.0699 7.78371 16.206 7.94598 16.2113 8.13966C16.2113 8.36474 16.0124 8.54795 15.7663 8.54795H14.0285C13.84 8.54795 13.6568 8.51131 13.4841 8.43802C13.2276 8.3281 12.9345 8.35427 12.7356 8.53748L11.809 9.3907C11.7672 9.42735 11.7305 9.47446 11.6991 9.52157C11.5369 9.78329 11.6206 10.1288 11.8876 10.2858C11.8876 10.2858 11.8876 10.2858 11.8928 10.2858C12.4058 10.5946 12.9816 10.7883 13.5783 10.8459V11.7096C13.5783 12.1388 13.9604 12.4895 14.4263 12.4895H15.2743C15.7402 12.4895 16.1223 12.1388 16.1223 11.7096V10.8511C17.7293 10.6732 18.9489 9.33836 18.7343 7.77324C18.5825 6.64782 17.6351 5.75796 16.4625 5.44389L13.8139 4.7477C13.6202 4.71106 13.4841 4.54879 13.4789 4.36034C13.4789 4.13526 13.6778 3.95205 13.9238 3.95205H15.6616C15.8501 3.95205 16.0333 3.98869 16.2113 4.06198C16.4678 4.1719 16.7609 4.14573 16.9598 3.96252L17.8863 3.1093C17.9282 3.07266 17.9648 3.03078 17.991 2.98367C18.1533 2.72194 18.0695 2.37647 17.8078 2.2142C17.8078 2.2142 17.8026 2.2142 17.8026 2.20896C17.2896 1.90013 16.7138 1.70645 16.117 1.64887V0.779941C16.1223 0.350712 15.7402 0 15.2743 0H14.4263C13.9604 0 13.5783 0.350712 13.5783 0.779941V1.6384C11.9713 1.81637 10.7517 3.15117 10.9663 4.71629C11.1181 5.84171 12.0603 6.73158 13.2381 7.04565ZM27.6016 16.0228C27.0258 15.4994 26.1254 15.536 25.5235 16.0228L21.0113 19.6294C20.4564 20.0743 19.7655 20.3151 19.0588 20.3151H13.2799C12.8507 20.3151 12.5 19.9644 12.5 19.5352C12.5 19.1059 12.8507 18.7552 13.2799 18.7552H17.1011C17.8758 18.7552 18.5982 18.2213 18.7238 17.4571C18.7395 17.3681 18.7448 17.2791 18.7448 17.1901C18.7448 16.3264 18.0433 15.6302 17.1796 15.6302H9.375C8.0559 15.6302 6.77869 16.0856 5.75796 16.9127L3.48618 18.7552H0.779941C0.350712 18.75 0 19.1007 0 19.5352V24.2253C0 24.6545 0.350712 25.0052 0.779941 25.0052H18.2004C18.9123 25.0052 19.598 24.7644 20.1528 24.3195L27.5387 18.4098C28.214 17.8706 28.3239 16.8865 27.7848 16.2113C27.7324 16.1432 27.6696 16.0804 27.6016 16.0228Z" fill="#666666"/>
</g>
<defs>
<clipPath id="clip0_1145_1018">
<rect width="28.1302" height="25" fill="white"/>
</clipPath>
</defs>
</svg>
