<svg width="25" height="25" viewBox="0 0 25 25" fill="none" xmlns="http://www.w3.org/2000/svg">
<path d="M5.08058 10.9355H1.17204C0.523231 10.9355 0 11.464 0 12.1076V23.828C0 24.4768 0.523231 25 1.17204 25H5.08058C5.72938 25 6.25262 24.4768 6.25262 23.828V12.1076C6.24738 11.464 5.72415 10.9355 5.08058 10.9355ZM3.12369 23.0483C2.47488 23.0483 1.95165 22.5251 1.95165 21.8763C1.95165 21.2275 2.47488 20.7043 3.12369 20.7043C3.7725 20.7043 4.29573 21.2275 4.29573 21.8763C4.29573 22.5199 3.7725 23.0483 3.12369 23.0483ZM18.7474 3.97656C18.7474 6.04856 17.4812 7.21013 17.1201 8.59146H22.0856C23.7181 8.59146 24.9843 9.94663 24.9948 11.4274C25 12.3012 24.6285 13.2482 24.0477 13.829L24.0425 13.8342C24.5239 14.9749 24.4454 16.5707 23.5873 17.7166C24.0111 18.9828 23.582 20.5316 22.7867 21.3688C22.996 22.2269 22.8966 22.9594 22.4885 23.5454C21.4943 24.9791 19.0195 24.9948 16.9318 24.9948H16.7905C14.4307 24.9948 12.5052 24.1367 10.9512 23.446C10.1716 23.1007 9.15132 22.6716 8.38217 22.6559C8.063 22.6507 7.80661 22.3891 7.80661 22.0699V11.6367C7.80661 11.4797 7.8694 11.328 7.97928 11.2181C9.91524 9.30829 10.7472 7.28338 12.3326 5.69276C13.0546 4.9707 13.3162 3.87715 13.5726 2.81499C13.7924 1.92026 14.2476 0 15.2365 0C16.4033 0 18.7474 0.392424 18.7474 3.97656Z" fill="#666666"/>
</svg>
