<svg width="80" height="80" viewBox="0 0 80 80" fill="none" xmlns="http://www.w3.org/2000/svg">
<g clip-path="url(#clip0_1745_1523)">
<path d="M40.0039 80.0077C62.0974 80.0077 80.0077 62.0974 80.0077 40.0039C80.0077 17.9103 62.0974 0 40.0039 0C17.9103 0 0 17.9103 0 40.0039C0 62.0974 17.9103 80.0077 40.0039 80.0077Z" fill="#60AFBA"/>
<path d="M29.1621 19.2329H53.5492C55.3651 19.2329 56.8333 20.7011 56.8333 22.517V61.7172C56.8333 63.5331 55.3651 65.0013 53.5492 65.0013H26.2489C24.433 65.0013 22.9648 63.5331 22.9648 61.7172V25.1906" fill="#FAF1E2"/>
<path d="M27.8404 36.8871L51.9648 36.7412L51.9582 35.6439L27.8338 35.7898L27.8404 36.8871Z" fill="#AFCAE1"/>
<path d="M27.8404 39.6298L51.9648 39.4839L51.9582 38.3866L27.8338 38.5325L27.8404 39.6298Z" fill="#AFCAE1"/>
<path d="M27.8404 42.6312L51.9648 42.4854L51.9582 41.3881L27.8338 41.534L27.8404 42.6312Z" fill="#AFCAE1"/>
<path d="M27.81 51.5759L52.0039 51.4297L51.9973 50.3324L27.8033 50.4787L27.81 51.5759Z" fill="#AFCAE1"/>
<path d="M27.81 54.2035L52.0039 54.0571L51.9973 52.9599L27.8033 53.1062L27.81 54.2035Z" fill="#AFCAE1"/>
<path d="M27.81 56.8455L52.0039 56.6992L51.9973 55.602L27.8033 55.7482L27.81 56.8455Z" fill="#AFCAE1"/>
<path d="M27.8404 59.3549L51.9648 59.209L51.9582 58.1117L27.8338 58.2576L27.8404 59.3549Z" fill="#AFCAE1"/>
<path d="M27.8404 45.4935L51.9648 45.3477L51.9582 44.2504L27.8338 44.3963L27.8404 45.4935Z" fill="#AFCAE1"/>
<path d="M27.8404 48.4872L51.9648 48.3413L51.9582 47.244L27.8338 47.3899L27.8404 48.4872Z" fill="#AFCAE1"/>
<path d="M33.3879 31.4416L52.0801 31.3286L52.0599 27.9827L33.3677 28.0957L33.3879 31.4416Z" fill="#AFCAE1"/>
<path d="M29.2699 19.125V21.9454C29.2699 23.8618 27.7245 25.4072 25.8158 25.4072H22.7559" fill="#C2CBC2"/>
<path d="M59.1972 17.4478L61.2604 18.3827C61.2604 18.3827 59.2977 24.1859 55.2641 33.0336C51.2382 41.8813 44.5773 54.0285 44.5773 54.0285L43.2637 53.4335C43.2637 53.4335 47.5832 41.464 52.0804 31.5886C56.5777 21.7055 59.1972 17.4478 59.1972 17.4478Z" fill="#383F48"/>
<path d="M60.8821 18.2129L61.8789 16.0184C62.0412 15.6552 61.8789 15.2302 61.5234 15.068C61.1603 14.9057 60.7353 15.068 60.573 15.4234L59.5762 17.6179L60.8821 18.2129Z" fill="#C2CBC2"/>
<path d="M51.3896 33.1141L54.5684 34.5615L55.0039 33.6051L51.8251 32.1577L51.3896 33.1141Z" fill="#C2CBC2"/>
<path d="M43.3573 53.48L44.4777 53.99L42.6387 56.54L43.3573 53.48Z" fill="#C2CBC2"/>
<path d="M56.3599 32.548L56.7422 32.6948L61.2423 20.9803L60.86 20.8335L56.3599 32.548Z" fill="#C2CBC2"/>
</g>
<defs>
<clipPath id="clip0_1745_1523">
<rect width="80" height="80" fill="white"/>
</clipPath>
</defs>
</svg>
