<svg width="30" height="25" viewBox="0 0 30 25" fill="none" xmlns="http://www.w3.org/2000/svg">
<g clip-path="url(#clip0_1145_1022)">
<path d="M8.07636 0.204531C7.80365 -0.0681771 7.36837 -0.0681771 7.09566 0.204531L3.40885 3.86511L2.09776 2.58548C1.82505 2.31278 1.38976 2.31278 1.11705 2.58548L0.204531 3.49801C-0.0681771 3.77072 -0.0681771 4.206 0.204531 4.47871L2.95784 7.22152C3.24103 7.49423 3.69205 7.49423 3.97525 7.22152L4.87728 6.31949L9.05706 2.13971C9.32977 1.867 9.32977 1.43172 9.0623 1.15377L8.07636 0.204531ZM8.07636 9.41368C7.80365 9.14097 7.36837 9.14097 7.09566 9.41368L3.40885 13.1005L2.09776 11.8261C1.82505 11.5534 1.38976 11.5534 1.11705 11.8261L0.209776 12.7334C-0.0629327 13.0061 -0.0629327 13.4414 0.209776 13.7141L2.95784 16.4621C3.24103 16.7348 3.69205 16.7348 3.97525 16.4621L4.88253 15.5549L9.0623 11.3751C9.32977 11.1076 9.33501 10.6671 9.06755 10.3996L8.07636 9.41368ZM3.70254 19.4462C2.17118 19.4462 0.891546 20.6891 0.891546 22.2257C0.891546 23.7571 2.17118 25.0052 3.70254 25.0052C5.2339 25.0052 6.48206 23.7623 6.48206 22.2257C6.48206 20.6891 5.23914 19.4462 3.70254 19.4462ZM28.7025 20.3692H12.0359C11.5272 20.3692 11.1076 20.7835 11.1076 21.2975V23.1487C11.1076 23.6574 11.5219 24.077 12.0359 24.077H28.7025C29.2112 24.077 29.6308 23.6627 29.6308 23.1487V21.2975C29.6256 20.7835 29.2112 20.3692 28.7025 20.3692ZM28.7025 1.85127H12.0359C11.5272 1.85127 11.1076 2.26558 11.1076 2.77953V4.6308C11.1076 5.1395 11.5219 5.55905 12.0359 5.55905H28.7025C29.2112 5.55905 29.6308 5.14475 29.6308 4.6308V2.77953C29.6256 2.26558 29.2112 1.85127 28.7025 1.85127ZM28.7025 11.1129H12.0359C11.5272 11.1129 11.1076 11.5272 11.1076 12.0411V13.8924C11.1076 14.4011 11.5219 14.8206 12.0359 14.8206H28.7025C29.2112 14.8206 29.6308 14.4063 29.6308 13.8924V12.0411C29.6256 11.5272 29.2112 11.1129 28.7025 11.1129Z" fill="#666666"/>
</g>
<defs>
<clipPath id="clip0_1145_1022">
<rect width="29.6256" height="25" fill="white"/>
</clipPath>
</defs>
</svg>
