<svg width="32" height="25" viewBox="0 0 32 25" fill="none" xmlns="http://www.w3.org/2000/svg">
<path d="M18.5088 7.63995H21.6304C21.9649 7.63995 22.2994 7.31445 22.2994 6.98895C22.2994 6.66345 21.9649 6.33795 21.6304 6.33795H18.5088C18.1743 6.33795 17.8398 6.66345 17.8398 6.98895C17.8398 7.31445 18.1743 7.63995 18.5088 7.63995Z" fill="#588982"/>
<path d="M9.47471 6.88047C9.14025 6.66347 8.6943 6.77197 8.47133 7.09747L6.13008 11.112L4.34628 7.96548C4.1233 7.63998 3.67735 7.53148 3.34288 7.74848C3.00842 7.96548 2.89694 8.39948 3.11991 8.72498L5.34967 12.5225L3.11991 16.32C2.89694 16.6455 3.00842 17.0795 3.34288 17.2965C3.45437 17.405 3.56586 17.405 3.67735 17.405C3.90033 17.405 4.1233 17.2965 4.23479 17.0795L6.01859 13.933L8.35984 17.9475C8.47132 18.1645 8.6943 18.273 8.91727 18.273C9.02876 18.273 9.14025 18.273 9.25174 18.1645C9.5862 17.9475 9.69769 17.5135 9.47471 17.188L6.68752 12.414L9.47471 7.63998C9.92066 7.42298 9.80918 6.98897 9.47471 6.88047Z" fill="#588982"/>
<path d="M25.0848 10.027V3.29995C25.0848 2.97445 24.7503 2.64895 24.4158 2.64895H12.8211V0.695944C12.8211 0.478943 12.7096 0.261943 12.5981 0.153442C12.4866 0.0449422 12.2637 -0.063558 12.0407 0.0449423L0.557439 2.43195C0.222976 2.54045 0 2.75745 0 3.08295V21.8535C0 22.179 0.222976 22.5045 0.557439 22.5045L11.9292 24.8915H12.0407C12.1522 24.8915 12.3751 24.783 12.4866 24.783C12.5981 24.6745 12.7096 24.4575 12.7096 24.2405V22.5045H18.6185C20.0678 24.0235 22.0746 25 24.3043 25C28.5409 25 31.997 21.6365 31.997 17.5135C32.1085 13.6075 29.0983 10.3525 25.0848 10.027ZM11.3718 23.481L1.44934 21.311V3.73395L11.3718 1.56395V23.481ZM12.8211 21.094V18.707H13.8245C14.159 18.707 14.4934 18.3815 14.4934 18.056C14.4934 17.7305 14.159 17.405 13.8245 17.405H12.8211V15.1265H13.8245C14.159 15.1265 14.4934 14.801 14.4934 14.4755C14.4934 14.15 14.159 13.8245 13.8245 13.8245H12.8211V11.546H15.7198C16.0542 11.546 16.3887 11.2205 16.3887 10.895C16.3887 10.5695 16.0542 10.244 15.7198 10.244H12.8211V7.96546H15.7198C16.0542 7.96546 16.3887 7.63996 16.3887 7.31446C16.3887 6.98896 16.0542 6.66346 15.7198 6.66346H12.8211V3.95095H23.7469V10.027C19.8448 10.3525 16.7232 13.6075 16.7232 17.5135C16.7232 18.8155 17.0576 20.1175 17.7266 21.2025H12.8211V21.094ZM24.4158 23.5895C23.078 23.5895 21.8516 23.1555 20.8482 22.5045C20.2908 22.179 19.8448 21.6365 19.3989 21.094C18.6185 20.1175 18.1725 18.8155 18.1725 17.405C18.1725 14.2585 20.6252 11.6545 23.7469 11.329C23.9699 11.329 24.1929 11.329 24.4158 11.329C24.6388 11.329 24.8618 11.329 25.0848 11.329C28.2064 11.6545 30.6591 14.2585 30.6591 17.405C30.7706 20.877 27.872 23.5895 24.4158 23.5895Z" fill="#588982"/>
<path d="M27.6506 17.0795L25.0864 19.9005V13.8245C25.0864 13.499 24.752 13.1735 24.4175 13.1735C24.083 13.1735 23.7486 13.499 23.7486 13.8245V19.792L21.1843 17.0795C20.9614 16.754 20.5154 16.754 20.181 16.971C19.8465 17.188 19.8465 17.622 20.0695 17.9475L23.86 22.0705C23.9715 22.179 24.1945 22.2875 24.4175 22.2875C24.6405 22.2875 24.8634 22.179 24.9749 22.0705L28.7655 17.9475C28.9885 17.622 28.9885 17.188 28.654 16.971C28.431 16.754 27.9851 16.754 27.6506 17.0795Z" fill="#588982"/>
</svg>
