<svg width="32" height="27" viewBox="0 0 32 27" fill="none" xmlns="http://www.w3.org/2000/svg">
<path d="M28.5389 18.5081C28.2146 18.2903 27.7821 18.2903 27.5659 18.6169L24.9713 21.4476V15.3508C24.9713 14.9153 24.647 14.5887 24.2146 14.5887C23.7821 14.5887 23.4578 14.9153 23.4578 15.3508V21.3387L21.0794 18.7258C20.7551 18.3992 20.3227 18.3992 20.1065 18.6169C19.7821 18.9436 19.7821 19.379 19.9983 19.5968L23.674 23.7339C23.8902 23.9516 23.9983 24.0605 24.2146 24.0605C24.4308 24.0605 24.5389 23.9516 24.9713 23.7339L28.647 19.5968C28.8632 19.1613 28.8632 18.7258 28.5389 18.5081Z" fill="#608CA5"/>
<path d="M24.973 11.7581C24.973 11.6492 24.973 11.6492 24.973 11.5403V7.94758C24.973 7.5121 24.8649 7.18548 24.5405 6.85887L18.1622 0.435484C17.8378 0.108871 17.5135 0 17.0811 0H7.24324C6.48649 0 5.83784 0.653226 5.83784 1.52419V7.29435H1.51351C0.648649 7.18548 0 7.83871 0 8.70968V15.2419C0 16.1129 0.648649 16.7661 1.51351 16.7661H5.83784V22.754C5.83784 23.5161 6.48649 24.2782 7.35135 24.2782H18.7027C20.1081 25.9113 22.1622 27 24.4324 27C28.5405 27 32 23.625 32 19.379C31.8919 15.2419 28.8649 11.9758 24.973 11.7581ZM18.0541 2.17742L22.7027 6.85887H18.1622C18.0541 6.85887 18.0541 6.75 18.0541 6.75V2.17742ZM1.51351 15.3508C1.40541 15.3508 1.40541 15.2419 1.40541 15.2419V8.70968C1.40541 8.60081 1.51351 8.60081 1.51351 8.60081H13.6216C13.7297 8.60081 13.7297 8.70968 13.7297 8.70968V15.2419C13.7297 15.3508 13.6216 15.3508 13.6216 15.3508H1.51351ZM7.24324 22.8629C7.13513 22.8629 7.13513 22.754 7.13513 22.754V16.7661H13.6216C14.4865 16.7661 15.1351 16.1129 15.1351 15.2419V8.70968C15.1351 7.83871 14.4865 7.18548 13.6216 7.18548H7.13513V1.52419C7.13513 1.41532 7.24324 1.41532 7.24324 1.41532H16.7568V6.85887C16.7568 7.62097 17.4054 8.38306 18.2703 8.38306H23.6757V11.6492C23.6757 11.7581 23.6757 11.7581 23.6757 11.8669C19.7838 12.1935 16.7568 15.4597 16.7568 19.379C16.7568 20.6855 17.0811 21.8831 17.6216 22.9718H7.24324V22.8629ZM24.3243 25.5847C20.8649 25.5847 18.0541 22.754 18.0541 19.2702C18.0541 15.7863 20.8649 12.9556 24.3243 12.9556C27.7838 12.9556 30.5946 15.7863 30.5946 19.2702C30.5946 22.754 27.7838 25.5847 24.3243 25.5847Z" fill="#608CA5"/>
<path d="M5.08161 10.0161C4.9735 9.90726 4.86539 9.79839 4.64918 9.79839C4.43296 9.79839 4.21674 9.68951 3.89242 9.68951H2.91945C2.70323 9.68951 2.59512 9.68951 2.48701 9.79839C2.37891 9.90726 2.37891 10.125 2.37891 10.3427V13.6089C2.37891 13.8266 2.37891 13.9355 2.48701 14.0444C2.59512 14.1532 2.70323 14.2621 2.81134 14.2621C2.91945 14.2621 3.13566 14.1532 3.13566 14.0444C3.24377 13.9355 3.24377 13.8266 3.24377 13.6089V12.5202H3.89242C4.43296 12.5202 4.75728 12.4113 5.08161 12.1935C5.29783 11.9758 5.51404 11.5403 5.51404 11.1048C5.51404 10.8871 5.51404 10.6694 5.40593 10.5605C5.29783 10.3427 5.29783 10.125 5.08161 10.0161ZM4.43296 11.4314C4.43296 11.5403 4.32485 11.5403 4.21674 11.5403C4.10864 11.5403 4.00053 11.6492 3.78431 11.6492H3.35188V10.5605H3.78431C4.10864 10.5605 4.32485 10.6694 4.32485 10.6694C4.43296 10.7782 4.43296 10.8871 4.43296 10.996C4.43296 11.2137 4.43296 11.3226 4.43296 11.4314Z" fill="#608CA5"/>
<path d="M8.21558 9.79839C7.99937 9.68951 7.78315 9.68951 7.56693 9.68951H6.48585C6.26964 9.68951 6.16153 9.68951 6.05342 9.79839C5.94531 9.90726 5.94531 10.125 5.94531 10.3427V13.3911C5.94531 13.5 5.94531 13.6089 5.94531 13.7177C5.94531 13.8266 6.05342 13.9355 6.16153 13.9355C6.26964 14.1532 6.37774 14.1532 6.48585 14.1532H7.56693C7.78315 14.1532 7.89126 14.1532 8.10747 14.1532C8.21558 14.1532 8.4318 14.0444 8.53991 14.0444C8.64802 13.9355 8.75612 13.9355 8.86423 13.8266C8.97234 13.7177 9.08045 13.5 9.18856 13.3911C9.29666 13.1734 9.29666 13.0645 9.40477 12.8468C9.40477 12.629 9.51288 12.4113 9.51288 12.0847C9.51288 11.3226 9.29666 10.6694 8.86423 10.2339C8.64802 9.90726 8.4318 9.79839 8.21558 9.79839ZM8.10747 13.0645C8.10747 13.0645 7.99937 13.1734 7.89126 13.1734C7.78315 13.1734 7.78315 13.1734 7.67504 13.1734C7.56693 13.1734 7.45883 13.1734 7.35072 13.1734H6.91829V10.5605H7.35072C7.56693 10.5605 7.78315 10.5605 7.89126 10.6694C7.99937 10.6694 8.10747 10.7782 8.21558 10.996C8.32369 11.2137 8.32369 11.4314 8.32369 11.8669C8.4318 12.4113 8.32369 12.8468 8.10747 13.0645Z" fill="#608CA5"/>
<path d="M12.3224 9.68951H10.4846C10.3765 9.68951 10.2684 9.68951 10.1603 9.79839C10.0522 9.79839 9.94404 9.90726 9.94404 10.0161C9.94404 10.125 9.83594 10.2339 9.83594 10.3427V13.6089C9.83594 13.8266 9.83594 13.9355 9.94404 14.0444C10.0522 14.1532 10.1603 14.2621 10.2684 14.2621C10.3765 14.2621 10.5927 14.1532 10.5927 14.0444C10.7008 13.9355 10.7008 13.8266 10.7008 13.6089V12.3024H11.89C11.9981 12.3024 12.1062 12.3024 12.2143 12.1935C12.3224 12.0847 12.3224 11.9758 12.3224 11.8669C12.3224 11.7581 12.3224 11.6492 12.2143 11.5403C12.1062 11.4315 11.9981 11.4314 11.89 11.4314H10.7008V10.5605H12.1062C12.2143 10.5605 12.4305 10.5605 12.4305 10.4516C12.5386 10.3427 12.5386 10.2339 12.5386 10.125C12.5386 10.0161 12.5386 9.90726 12.4305 9.79839C12.5386 9.68951 12.4305 9.68951 12.3224 9.68951Z" fill="#608CA5"/>
</svg>
