<svg width="34" height="25" viewBox="0 0 34 25" fill="none" xmlns="http://www.w3.org/2000/svg">
<g clip-path="url(#clip0_1145_1024)">
<path d="M15.1191 19.9851H23.8878V23.2761C23.8878 24.806 25.7385 25.5672 26.8132 24.4925L32.9624 18.3433C33.6341 17.6717 33.6341 16.5896 32.9624 15.9179L26.8132 9.76867C25.7311 8.68658 23.8878 9.45523 23.8878 10.9851V14.2761H15.1191V19.9851Z" fill="#666666"/>
<path d="M18.2441 5.01401H9.57996V1.7155C9.57996 0.185653 7.72921 -0.575541 6.65459 0.499086L0.497872 6.6558C-0.17377 7.32744 -0.17377 8.40953 0.497872 9.08117L6.64712 15.2304C7.72921 16.3125 9.5725 15.5439 9.5725 14.014V10.723H18.2367L18.2441 5.01401Z" fill="#666666"/>
</g>
<defs>
<clipPath id="clip0_1145_1024">
<rect width="33.4701" height="25" fill="white"/>
</clipPath>
</defs>
</svg>
