<svg width="20" height="20" viewBox="0 0 20 20" fill="none" xmlns="http://www.w3.org/2000/svg">
    <path fill-rule="evenodd" clip-rule="evenodd" d="M2.155 4.238c.42-.42.99-.656 1.583-.656h5.22a.746.746 0 0 1 0 1.492h-5.22a.746.746 0 0 0-.746.746v10.442a.746.746 0 0 0 .746.746H14.18a.746.746 0 0 0 .746-.746v-5.22a.746.746 0 1 1 1.492 0v5.22A2.237 2.237 0 0 1 14.18 18.5H3.738A2.238 2.238 0 0 1 1.5 16.262V5.82c0-.594.236-1.163.655-1.582z" fill="#9D2449"/>
    <path fill-rule="evenodd" clip-rule="evenodd" d="M15.672 3.492a.836.836 0 0 0-.592.245l-6.94 6.94-.394 1.577 1.577-.395 6.94-6.94a.837.837 0 0 0-.591-1.427zm-1.646-.81a2.328 2.328 0 1 1 3.292 3.292l-7.086 7.086a.746.746 0 0 1-.346.197l-2.984.745a.746.746 0 0 1-.904-.904l.745-2.984c.033-.13.101-.25.197-.346l7.086-7.086z" fill="#9D2449"/>
</svg>
