<svg width="29" height="25" viewBox="0 0 29 25" fill="none" xmlns="http://www.w3.org/2000/svg">
<g clip-path="url(#clip0_1145_1027)">
<path d="M10.6524 20.7098C10.5063 20.4228 10.2557 20.3914 10.1566 20.3914C10.0574 20.3914 9.80167 20.4228 9.66597 20.6942L9.29019 21.4457C8.97703 22.072 8.06889 21.999 7.84969 21.3413L7.03027 18.8779L6.51357 20.4332C6.22651 21.2944 5.42276 21.8737 4.50939 21.8737H3.90397C3.47077 21.8737 3.12109 21.524 3.12109 21.0908C3.12109 20.6576 3.47077 20.3079 3.90397 20.3079H4.50939C4.74426 20.3079 4.95303 20.1566 5.03131 19.9321L5.91858 17.2651C6.08038 16.785 6.52401 16.4614 7.03027 16.4614C7.53653 16.4614 7.98017 16.785 8.14196 17.2651L8.82046 19.3006C9.78601 18.5125 11.4614 18.8257 12.0407 19.9896C12.1347 20.1722 12.3069 20.2818 12.5 20.2975V16.2891L18.7474 10.0835V7.81315H12.1086C11.4666 7.81315 10.9342 7.28601 10.9342 6.63883V0H1.17432C0.521921 0 0 0.521921 0 1.17432V23.8309C0 24.4781 0.521921 25.0052 1.17432 25.0052H17.5783C18.2255 25.0052 18.7526 24.4833 18.7526 23.8309V21.8789L12.5 21.8685C11.7119 21.8528 11.0073 21.4144 10.6524 20.7098ZM18.7474 5.9499C18.7474 5.64196 18.6273 5.34447 18.4081 5.12526L13.6273 0.339248C13.4081 0.120042 13.1106 0 12.7975 0H12.5V6.24739H18.7474V5.9499ZM14.0605 16.9415V20.3132H17.4269L25.3236 12.3643L22.0094 9.05011L14.0605 16.9415ZM27.761 8.16806L26.2056 6.61274C25.7202 6.12735 24.9321 6.12735 24.4468 6.61274L23.1159 7.94363L26.4301 11.2578L27.761 9.92693C28.2463 9.44155 28.2463 8.65344 27.761 8.16806Z" fill="#666666"/>
</g>
<defs>
<clipPath id="clip0_1145_1027">
<rect width="28.1263" height="25" fill="white"/>
</clipPath>
</defs>
</svg>
