<svg width="13" height="15" viewBox="0 0 13 15" fill="none" xmlns="http://www.w3.org/2000/svg">
<g clip-path="url(#clip0_2223_1812)">
<path d="M11.9391 13.5938C11.9391 13.9667 11.7939 14.3244 11.5356 14.5881C11.2772 14.8519 10.9269 15 10.5615 15H2.2962C1.93085 15 1.58046 14.8519 1.32212 14.5881C1.06378 14.3244 0.918647 13.9667 0.918647 13.5938V3.75001H11.9391V13.5938ZM4.13293 6.09376C4.13293 5.96944 4.08455 5.85021 3.99844 5.7623C3.91233 5.67439 3.79553 5.62501 3.67375 5.62501C3.55197 5.62501 3.43517 5.67439 3.34906 5.7623C3.26294 5.85021 3.21457 5.96944 3.21457 6.09376V12.6563C3.21457 12.7806 3.26294 12.8998 3.34906 12.9877C3.43517 13.0756 3.55197 13.125 3.67375 13.125C3.79553 13.125 3.91233 13.0756 3.99844 12.9877C4.08455 12.8998 4.13293 12.7806 4.13293 12.6563V6.09376ZM6.88803 6.09376C6.88803 5.96944 6.83966 5.85021 6.75354 5.7623C6.66743 5.67439 6.55063 5.62501 6.42885 5.62501C6.30707 5.62501 6.19027 5.67439 6.10416 5.7623C6.01804 5.85021 5.96967 5.96944 5.96967 6.09376V12.6563C5.96967 12.7806 6.01804 12.8998 6.10416 12.9877C6.19027 13.0756 6.30707 13.125 6.42885 13.125C6.55063 13.125 6.66743 13.0756 6.75354 12.9877C6.83966 12.8998 6.88803 12.7806 6.88803 12.6563V6.09376ZM9.64314 6.09376C9.64314 5.96944 9.59476 5.85021 9.50864 5.7623C9.42253 5.67439 9.30574 5.62501 9.18395 5.62501C9.06217 5.62501 8.94537 5.67439 8.85926 5.7623C8.77315 5.85021 8.72477 5.96944 8.72477 6.09376V12.6563C8.72477 12.7806 8.77315 12.8998 8.85926 12.9877C8.94537 13.0756 9.06217 13.125 9.18395 13.125C9.30574 13.125 9.42253 13.0756 9.50864 12.9877C9.59476 12.8998 9.64314 12.7806 9.64314 12.6563V6.09376ZM0.459463 0.937505H3.90334L4.17311 0.389654C4.23026 0.272529 4.31828 0.174006 4.42729 0.105169C4.5363 0.0363316 4.66196 -8.87099e-05 4.79014 5.13654e-06H8.07043C8.19832 -0.000496735 8.32376 0.0357878 8.43238 0.104702C8.541 0.173615 8.62841 0.272371 8.68459 0.389654L8.95436 0.937505H12.3982C12.52 0.937505 12.6368 0.986891 12.7229 1.0748C12.809 1.16271 12.8574 1.28194 12.8574 1.40626V2.34376C12.8574 2.46808 12.809 2.5873 12.7229 2.67521C12.6368 2.76312 12.52 2.81251 12.3982 2.81251H0.459463C0.33768 2.81251 0.220884 2.76312 0.13477 2.67521C0.0486574 2.5873 0.000279427 2.46808 0.000279427 2.34376V1.40626C0.000279427 1.28194 0.0486574 1.16271 0.13477 1.0748C0.220884 0.986891 0.33768 0.937505 0.459463 0.937505Z" fill="#BE4242"/>
</g>
<defs>
<clipPath id="clip0_2223_1812">
<rect width="12.8571" height="15" fill="white" transform="matrix(-1 0 0 1 12.8574 0)"/>
</clipPath>
</defs>
</svg>
