<svg width="33" height="13" viewBox="0 0 33 13" fill="none" xmlns="http://www.w3.org/2000/svg">
<g clip-path="url(#clip0_1145_1035)">
<path d="M18.6309 4.14984H14.7165H10.2944H6.38742C5.23959 4.14984 4.3125 5.07693 4.3125 6.22476C4.3125 7.37258 5.23959 8.29967 6.38742 8.29967H10.3018H14.7239H18.6383C19.7861 8.29967 20.7132 7.37258 20.7132 6.22476C20.7132 5.07693 19.7787 4.14984 18.6309 4.14984Z" fill="#666666"/>
<path d="M26.7753 0H16.6288H16.3712H6.22475C2.78863 0 0 2.78863 0 6.22475C0 9.66087 2.78863 12.4495 6.22475 12.4495H16.3712H16.6288H26.7753C30.2114 12.4495 33 9.66087 33 6.22475C33 2.78863 30.2114 0 26.7753 0ZM26.7753 9.33712H16.6288H16.3418H6.22475C4.51037 9.33712 3.11237 7.93913 3.11237 6.22475C3.11237 4.51037 4.51037 3.11237 6.22475 3.11237H16.3712H16.6582H26.7753C28.4896 3.11237 29.8876 4.51037 29.8876 6.22475C29.8876 7.93913 28.4896 9.33712 26.7753 9.33712Z" fill="#666666"/>
</g>
<defs>
<clipPath id="clip0_1145_1035">
<rect width="33" height="12.4495" fill="white"/>
</clipPath>
</defs>
</svg>
