<svg width="19" height="25" viewBox="0 0 19 25" fill="none" xmlns="http://www.w3.org/2000/svg">
<g clip-path="url(#clip0_1145_1033)">
<path d="M18.7474 9.37631H15.6237V7.5293C17.4393 6.88573 18.7474 5.16953 18.7474 3.12892H15.6237V1.56446C15.6237 0.70113 14.9226 0 14.0592 0H4.68815C3.82482 0 3.12369 0.70113 3.12369 1.56446V3.12892H0C0 5.16953 1.30808 6.88573 3.12369 7.5293V9.37631H0C0 11.4169 1.30808 13.1331 3.12369 13.7767V15.6237H0C0 17.7166 1.38133 19.4642 3.2702 20.0712C3.87715 22.8861 6.37819 25 9.37631 25C12.3744 25 14.8755 22.8861 15.4824 20.0712C17.3765 19.4694 18.7526 17.7166 18.7526 15.6237H15.6289V13.7767C17.4393 13.1279 18.7474 11.4117 18.7474 9.37631ZM9.37631 20.3118C8.08393 20.3118 7.03223 19.2602 7.03223 17.9678C7.03223 16.6754 8.08393 15.6237 9.37631 15.6237C10.6687 15.6237 11.7204 16.6754 11.7204 17.9678C11.7204 19.2602 10.6687 20.3118 9.37631 20.3118ZM9.37631 14.0645C8.08393 14.0645 7.03223 13.0128 7.03223 11.7204C7.03223 10.428 8.08393 9.37631 9.37631 9.37631C10.6687 9.37631 11.7204 10.428 11.7204 11.7204C11.7204 13.0128 10.6687 14.0645 9.37631 14.0645ZM9.37631 7.81185C8.08393 7.81185 7.03223 6.76015 7.03223 5.46777C7.03223 4.17539 8.08393 3.12369 9.37631 3.12369C10.6687 3.12369 11.7204 4.17539 11.7204 5.46777C11.7204 6.76015 10.6687 7.81185 9.37631 7.81185Z" fill="#666666"/>
</g>
<defs>
<clipPath id="clip0_1145_1033">
<rect width="18.7474" height="25" fill="white"/>
</clipPath>
</defs>
</svg>
