<svg width="21" height="25" viewBox="0 0 21 25" fill="none" xmlns="http://www.w3.org/2000/svg">
<g clip-path="url(#clip0_1145_1039)">
<path d="M12.1064 7.81022C11.4599 7.81022 10.9333 7.28363 10.9333 6.63712V0H1.1731C0.521376 0 0 0.521376 0 1.1731V23.8269C0 24.4786 0.521376 25 1.1731 25H17.5808C18.2325 25 18.7539 24.4786 18.7539 23.8269V7.81022H12.1064ZM3.12304 3.51408C3.12304 3.30031 3.30031 3.12304 3.51408 3.12304H7.41919C7.63295 3.12304 7.81022 3.30031 7.81022 3.51408V4.29614C7.81022 4.50991 7.63295 4.68717 7.41919 4.68717H3.51408C3.30031 4.68717 3.12304 4.50991 3.12304 4.29614V3.51408ZM3.12304 6.64234C3.12304 6.42857 3.30031 6.2513 3.51408 6.2513H7.41919C7.63295 6.2513 7.81022 6.42857 7.81022 6.64234V7.4244C7.81022 7.63816 7.63295 7.81543 7.41919 7.81543H3.51408C3.30031 7.81543 3.12304 7.63816 3.12304 7.4244V6.64234ZM14.8436 20.3128H12.5391C11.7362 20.3128 11.0115 19.8644 10.6517 19.1502C10.5057 18.8634 10.2555 18.8321 10.1564 18.8321C10.0574 18.8321 9.80188 18.8634 9.66632 19.1345L9.29093 19.8853C9.16058 20.1512 8.88947 20.318 8.59228 20.318C8.57143 20.318 8.55579 20.318 8.53493 20.318C8.22211 20.2972 7.95099 20.0886 7.85193 19.7862L7.02815 17.3201L6.51199 18.879C6.22523 19.7393 5.4171 20.3233 4.50991 20.3233H3.90511C3.47237 20.3233 3.12304 19.9739 3.12304 19.5412C3.12304 19.1084 3.47237 18.7591 3.90511 18.7591H4.50991C4.74453 18.7591 4.95308 18.6079 5.03128 18.3837L5.91762 15.7143C6.07925 15.2346 6.52242 14.9114 7.02815 14.9114C7.53389 14.9114 7.97706 15.2346 8.13869 15.7143L8.81647 17.7477C9.78102 16.9552 11.4546 17.2732 12.0386 18.4411C12.1376 18.6392 12.3306 18.7591 12.5339 18.7591H14.8384C15.2711 18.7591 15.6204 19.1084 15.6204 19.5412C15.6204 19.9739 15.2763 20.3128 14.8436 20.3128Z" fill="#666666"/>
<path d="M15.0057 6.39209L12.1798 3.56623C12.0078 3.39417 12.0078 3.12306 12.1798 2.951L12.795 2.33578C12.9671 2.16372 13.2382 2.16372 13.4103 2.33578L15.3133 4.2388L19.3852 0.166852C19.5573 -0.00520228 19.8284 -0.00520228 20.0005 0.166852L20.6157 0.782076C20.7877 0.95413 20.7877 1.22525 20.6157 1.3973L15.6209 6.39209C15.4541 6.56414 15.1777 6.56414 15.0057 6.39209Z" fill="#666666"/>
</g>
<defs>
<clipPath id="clip0_1145_1039">
<rect width="20.7456" height="25" fill="white"/>
</clipPath>
</defs>
</svg>
