<svg width="20" height="20" viewBox="0 0 20 20" fill="none" xmlns="http://www.w3.org/2000/svg">
    <g clip-path="url(#a)" stroke="#98989A" stroke-width="2" stroke-linecap="round" stroke-linejoin="round">
        <path d="M11.767 11.767a2.5 2.5 0 1 1-3.534-3.533m6.717 6.716A8.391 8.391 0 0 1 10 16.667C4.167 16.667.833 10 .833 10A15.375 15.375 0 0 1 5.05 5.05l9.9 9.9zM8.25 3.534a7.6 7.6 0 0 1 1.75-.2c5.833 0 9.167 6.666 9.167 6.666a15.412 15.412 0 0 1-1.8 2.659L8.25 3.534zM.833.833l18.334 18.334"/>
    </g>
    <defs>
        <clipPath id="a">
            <path fill="#fff" d="M0 0h20v20H0z"/>
        </clipPath>
    </defs>
</svg>
