<svg width="20" height="13" viewBox="0 0 20 13" fill="none" xmlns="http://www.w3.org/2000/svg">
<path d="M0.12711 6.76263C0.30578 7.00705 4.56294 12.7473 10.0001 12.7473C15.4373 12.7473 19.6946 7.00705 19.8731 6.76287C20.0423 6.53099 20.0423 6.2165 19.8731 5.98462C19.6946 5.74021 15.4373 3.8147e-06 10.0001 3.8147e-06C4.56294 3.8147e-06 0.30578 5.74025 0.12711 5.98443C-0.042345 6.21626 -0.042345 6.53099 0.12711 6.76263ZM10.0001 1.31868C14.0051 1.31868 17.4739 5.12857 18.5008 6.37408C17.4753 7.62068 14.0137 11.4286 10.0001 11.4286C5.99525 11.4286 2.52668 7.61935 1.49942 6.37318C2.52493 5.12661 5.98646 1.31868 10.0001 1.31868Z" fill="#B38E5D"/>
<path d="M10.0439 10.3293C12.2253 10.3293 14 8.55455 14 6.37322C14 4.19189 12.2253 2.41716 10.0439 2.41716C7.86261 2.41716 6.08788 4.19189 6.08788 6.37322C6.08788 8.55455 7.86261 10.3293 10.0439 10.3293ZM10.0439 3.73587C11.4982 3.73587 12.6813 4.91896 12.6813 6.37322C12.6813 7.82748 11.4982 9.01057 10.0439 9.01057C8.58968 9.01057 7.40659 7.82748 7.40659 6.37322C7.40659 4.91896 8.58964 3.73587 10.0439 3.73587Z" fill="#B38E5D"/>
</svg>
