<svg width="25" height="25" viewBox="0 0 25 25" fill="none" xmlns="http://www.w3.org/2000/svg">
<g clip-path="url(#clip0_1145_1044)">
<path d="M0 19.7941V21.8796C0 23.6026 4.19731 25.0052 9.37697 25.0052C14.5566 25.0052 18.7539 23.6026 18.7539 21.8796V19.7941C16.7367 21.2177 13.049 21.8796 9.37697 21.8796C5.70498 21.8796 2.01723 21.2124 0 19.7941Z" fill="#666666"/>
<path d="M0 14.6669V17.1885C0 18.9115 4.19731 20.3141 9.37697 20.3141C14.5566 20.3141 18.7539 18.9115 18.7539 17.1885V14.6669C16.7367 16.3269 13.0437 17.1885 9.37697 17.1885C5.71023 17.1885 2.01723 16.3269 0 14.6669Z" fill="#666666"/>
<path d="M20.3145 15.208C23.1144 14.6617 25.0003 13.6583 25.0003 12.5026V10.4171C23.8656 11.2156 22.2004 11.7672 20.3145 12.1034V15.208Z" fill="#666666"/>
<path d="M20.0836 10.5642C23.0149 10.0389 25.0006 9.00398 25.0006 7.81676V5.72598C23.2671 6.94998 20.2885 7.61188 17.1523 7.76948C18.597 8.46816 19.6581 9.40323 20.0836 10.5642Z" fill="#666666"/>
<path d="M9.37697 7.81152C4.19731 7.81152 0 9.56084 0 11.7199C0 13.879 4.19731 15.6283 9.37697 15.6283C14.5566 15.6283 18.7539 13.879 18.7539 11.7199C18.7539 9.56084 14.5514 7.81152 9.37697 7.81152ZM12.5762 13.0647L13.0174 13.3747C13.2381 13.5323 13.0805 13.7056 12.6655 13.7687L11.9143 13.8842C11.4993 13.9473 10.9792 13.8737 10.7586 13.7161L10.312 13.4062C9.74995 13.464 9.14058 13.4745 8.52595 13.4325H8.5207C8.20551 13.4114 7.95335 13.2959 7.9586 13.1803C7.9586 13.1593 7.96911 13.1383 7.99012 13.1173L8.37361 12.6812C8.45241 12.5919 8.70456 12.5394 8.98823 12.5447C9.17735 12.5447 9.36121 12.5342 9.52931 12.5079L11.0738 12.2715C11.2944 12.24 11.3732 12.1454 11.2576 12.0614C11.1526 11.9931 10.9529 11.951 10.7638 11.9616L8.04791 12.0666C6.84493 12.1139 5.54213 11.9195 4.82769 11.5308C3.83484 10.995 4.22358 10.3488 5.56314 10.0704L5.11662 9.77097C4.89599 9.61337 5.05358 9.44002 5.46859 9.37698L6.21979 9.26141C6.6348 9.19837 7.15486 9.27191 7.3755 9.42951L7.82202 9.73945C8.38412 9.68166 8.99349 9.67116 9.60811 9.71318H9.61336C9.92856 9.7342 10.1807 9.84977 10.1702 9.96534C10.1702 9.98635 10.1597 10.0074 10.1439 10.0231L9.76045 10.4591C9.68166 10.5484 9.4295 10.601 9.14583 10.5957C8.95671 10.5957 8.77285 10.6062 8.60475 10.6325L7.06031 10.8689C6.83967 10.9004 6.76087 10.995 6.87644 11.079C6.98151 11.1473 7.18113 11.1893 7.37025 11.1788L10.0862 11.0738C11.2944 11.0265 12.5919 11.2209 13.3064 11.6096C14.3045 12.1402 13.9157 12.7863 12.5762 13.0647Z" fill="#666666"/>
<path d="M15.6289 0C10.4493 0 6.25195 1.40261 6.25195 3.12566C6.25195 4.84871 10.4493 6.25131 15.6289 6.25131C20.8033 6.25131 25.0059 4.84871 25.0059 3.12566C25.0059 1.40261 20.8033 0 15.6289 0ZM18.8176 4.49674L19.2169 4.77516C19.4165 4.917 19.2746 5.0746 18.9017 5.13238L18.224 5.23745C17.851 5.29523 17.3835 5.22694 17.1839 5.0851L16.7846 4.80668C16.2803 4.85921 15.7287 4.86447 15.1771 4.82769C15.1771 4.82769 15.1771 4.82769 15.1719 4.82769C14.8882 4.80668 14.6623 4.70687 14.6676 4.60181C14.6676 4.58079 14.6781 4.56503 14.6939 4.54402L15.0406 4.15528C15.1141 4.07123 15.34 4.02921 15.5922 4.03446C15.7655 4.03446 15.9284 4.02395 16.0807 4.00294L17.4728 3.79281C17.6672 3.76129 17.7407 3.67724 17.6409 3.6037C17.5463 3.54066 17.3677 3.50389 17.1996 3.51439L14.7569 3.60895C13.659 3.65098 12.4875 3.47762 11.8414 3.13091C10.9483 2.64762 11.3003 2.06451 12.5033 1.81236L12.104 1.53394C11.9044 1.3921 12.0462 1.2345 12.4192 1.17672L13.0969 1.07165C13.4699 1.01387 13.9374 1.08216 14.137 1.224L14.5415 1.50242C15.0458 1.44988 15.5974 1.44463 16.149 1.4814H16.1542C16.4379 1.50242 16.6638 1.60223 16.6586 1.70729C16.6586 1.7283 16.648 1.74406 16.6323 1.75982L16.2856 2.15381C16.212 2.23787 15.9861 2.27989 15.734 2.27464C15.5606 2.27464 15.3978 2.28514 15.2454 2.30616L13.8533 2.51628C13.659 2.55306 13.5854 2.63711 13.6905 2.71065C13.785 2.77369 13.9637 2.81046 14.1318 2.79996L16.5745 2.7054C17.6619 2.66337 18.8281 2.84198 19.4743 3.18344C20.3726 3.66674 20.0206 4.24459 18.8176 4.49674Z" fill="#666666"/>
</g>
<defs>
<clipPath id="clip0_1145_1044">
<rect width="25" height="25" fill="white"/>
</clipPath>
</defs>
</svg>
