<svg width="25" height="25" viewBox="0 0 25 25" fill="none" xmlns="http://www.w3.org/2000/svg">
<g clip-path="url(#clip0_1145_1052)">
<path d="M10.9268 6.38298L7.54691 0.759087C7.26987 0.288121 6.76012 0 6.21159 0H0.781621C0.149972 0 -0.22126 0.70922 0.144432 1.23005L5.5744 8.99269C7.02608 7.6352 8.87116 6.70434 10.9268 6.38298ZM24.2136 0H18.7892C18.2406 0 17.7309 0.288121 17.4483 0.759087L14.074 6.38298C16.124 6.70434 17.9747 7.63519 19.4208 8.98715L24.8508 1.22451C25.2165 0.70922 24.8452 0 24.2136 0ZM12.5004 7.8125C7.75746 7.8125 3.90662 11.6578 3.90662 16.4063C3.90662 21.1547 7.75192 25 12.5004 25C17.2488 25 21.0941 21.1547 21.0941 16.4063C21.0941 11.6578 17.2433 7.8125 12.5004 7.8125ZM17.0161 15.492L15.1655 17.2983L15.6032 19.8471C15.6808 20.3014 15.1987 20.6505 14.7887 20.4399L12.5004 19.2376L10.212 20.4399C9.80201 20.656 9.31996 20.307 9.39753 19.8471L9.83525 17.2983L7.98464 15.492C7.65219 15.1651 7.83503 14.6 8.29492 14.5335L10.8548 14.1622L11.9962 11.8406C12.1014 11.6301 12.3009 11.5304 12.5004 11.5304C12.6998 11.5304 12.8993 11.6356 13.0046 11.8406L14.146 14.1622L16.7058 14.5335C17.1657 14.6 17.3486 15.1651 17.0161 15.492Z" fill="#666666"/>
</g>
<defs>
<clipPath id="clip0_1145_1052">
<rect width="25" height="25" fill="white"/>
</clipPath>
</defs>
</svg>
