<svg width="24" height="24" viewBox="0 0 24 24" fill="none" xmlns="http://www.w3.org/2000/svg">
    <path fill-rule="evenodd" clip-rule="evenodd" d="M5.61 5.89c-.48 0-.87.392-.87.874v12.218c0 .482.39.873.87.873h12.18c.48 0 .87-.391.87-.873V6.764a.871.871 0 0 0-.87-.873H5.61zM3 6.765a2.614 2.614 0 0 1 2.61-2.619h12.18a2.614 2.614 0 0 1 2.61 2.619v12.218a2.614 2.614 0 0 1-2.61 2.618H5.61A2.614 2.614 0 0 1 3 18.982V6.764z" fill="#333"/>
    <path fill-rule="evenodd" clip-rule="evenodd" d="M15.18 2.4c.48 0 .87.39.87.873v3.49c0 .483-.39.873-.87.873s-.87-.39-.87-.872V3.273c0-.482.39-.873.87-.873zM8.22 2.4c.48 0 .87.39.87.873v3.49c0 .483-.39.873-.87.873s-.87-.39-.87-.872V3.273c0-.482.39-.873.87-.873zM3 10.255c0-.482.39-.873.87-.873h15.66c.48 0 .87.39.87.873 0 .482-.39.872-.87.872H3.87c-.48 0-.87-.39-.87-.872z" fill="#333"/>
</svg>
