<svg width="15" height="9" viewBox="0 0 15 9" fill="none" xmlns="http://www.w3.org/2000/svg">
<path d="M2.39713 0.412153L8.48155 6.49657C9.0231 7.03812 9.0231 7.93007 8.48155 8.48755C7.94001 9.02909 7.04805 9.02909 6.49058 8.48755L0.406159 2.40313C-0.135386 1.86158 -0.135386 0.969626 0.406159 0.412153C0.947704 -0.129392 1.83966 -0.145319 2.39713 0.412153Z" fill="#333333"/>
<path d="M14.5819 2.40311L8.49748 8.48753C7.95593 9.02908 7.06397 9.02908 6.5065 8.48753C5.96496 7.94599 5.96496 7.05403 6.5065 6.49656L12.5909 0.41214C13.1325 -0.129405 14.0244 -0.129405 14.5819 0.41214C15.1394 0.953685 15.1394 1.84564 14.5819 2.40311Z" fill="#333333"/>
</svg>
