<svg width="19" height="25" viewBox="0 0 19 25" fill="none" xmlns="http://www.w3.org/2000/svg">
<g clip-path="url(#clip0_1145_1054)">
<path d="M16.4077 3.12303H12.5026C12.5026 1.40143 11.1012 0 9.37959 0C7.65799 0 6.25656 1.40143 6.25656 3.12303H2.34621C1.04976 3.12303 0 4.17279 0 5.46924V22.659C0 23.9555 1.04976 25.0052 2.34621 25.0052H16.4077C17.7042 25.0052 18.7539 23.9555 18.7539 22.659V5.46924C18.7487 4.17279 17.6989 3.12303 16.4077 3.12303ZM4.68717 20.7012C4.03632 20.7012 3.51669 20.1764 3.51669 19.5308C3.51669 18.8799 4.04157 18.3603 4.68717 18.3603C5.33802 18.3603 5.85765 18.8852 5.85765 19.5308C5.85765 20.1816 5.33802 20.7012 4.68717 20.7012ZM4.68717 16.0141C4.03632 16.0141 3.51669 15.4892 3.51669 14.8436C3.51669 14.198 4.04157 13.6731 4.68717 13.6731C5.33802 13.6731 5.85765 14.198 5.85765 14.8436C5.85765 15.4892 5.33802 16.0141 4.68717 16.0141ZM4.68717 11.3269C4.03632 11.3269 3.51669 10.802 3.51669 10.1564C3.51669 9.50556 4.04157 8.98593 4.68717 8.98593C5.33802 8.98593 5.85765 9.51081 5.85765 10.1564C5.85765 10.8073 5.33802 11.3269 4.68717 11.3269ZM9.37434 1.95255C10.0252 1.95255 10.5448 2.47743 10.5448 3.12303C10.5448 3.76863 10.0199 4.29351 9.37434 4.29351C8.72349 4.29351 8.20386 3.76863 8.20386 3.12303C8.20386 2.47743 8.72349 1.95255 9.37434 1.95255ZM15.6257 19.9244C15.6257 20.1396 15.4524 20.3128 15.2372 20.3128H8.20386C7.98866 20.3128 7.81545 20.1396 7.81545 19.9244V19.1423C7.81545 18.9271 7.98866 18.7539 8.20386 18.7539H15.2372C15.4524 18.7539 15.6257 18.9271 15.6257 19.1423V19.9244ZM15.6257 15.232C15.6257 15.4472 15.4524 15.6204 15.2372 15.6204H8.20386C7.98866 15.6204 7.81545 15.4472 7.81545 15.232V14.4499C7.81545 14.2347 7.98866 14.0615 8.20386 14.0615H15.2372C15.4524 14.0615 15.6257 14.2347 15.6257 14.4499V15.232ZM15.6257 10.5448C15.6257 10.76 15.4524 10.9332 15.2372 10.9332H8.20386C7.98866 10.9332 7.81545 10.76 7.81545 10.5448V9.76275C7.81545 9.54755 7.98866 9.37434 8.20386 9.37434H15.2372C15.4524 9.37434 15.6257 9.54755 15.6257 9.76275V10.5448Z" fill="#666666"/>
</g>
<defs>
<clipPath id="clip0_1145_1054">
<rect width="18.7487" height="25" fill="white"/>
</clipPath>
</defs>
</svg>
