<svg width="22" height="25" viewBox="0 0 22 25" fill="none" xmlns="http://www.w3.org/2000/svg">
<g clip-path="url(#clip0_1145_1056)">
<path d="M21.877 17.5789V1.16984C21.877 0.522248 21.3547 0 20.7071 0H4.68979C2.09944 0 0 2.09944 0 4.68979V20.3154C0 22.9058 2.09944 25.0052 4.68979 25.0052H20.7071C21.3547 25.0052 21.877 24.483 21.877 23.8354V23.052C21.877 22.6864 21.7046 22.3522 21.4435 22.1381C21.2398 21.386 21.2398 19.2448 21.4435 18.4928C21.7046 18.2787 21.877 17.9444 21.877 17.5789ZM6.25131 6.54376C6.25131 6.38187 6.38187 6.25131 6.54376 6.25131H16.8947C17.0566 6.25131 17.1872 6.38187 17.1872 6.54376V7.52037C17.1872 7.68226 17.0566 7.81283 16.8947 7.81283H6.54376C6.38187 7.81283 6.25131 7.68226 6.25131 7.52037V6.54376ZM6.25131 9.66681C6.25131 9.50491 6.38187 9.37435 6.54376 9.37435H16.8947C17.0566 9.37435 17.1872 9.50491 17.1872 9.66681V10.6434C17.1872 10.8053 17.0566 10.9359 16.8947 10.9359H6.54376C6.38187 10.9359 6.25131 10.8053 6.25131 10.6434V9.66681ZM18.6234 21.877H4.68979C3.82285 21.877 3.12826 21.1771 3.12826 20.3154C3.12826 19.4537 3.8333 18.7539 4.68979 18.7539H18.6286C18.5294 19.5843 18.5294 21.0414 18.6234 21.877Z" fill="#666666"/>
</g>
<defs>
<clipPath id="clip0_1145_1056">
<rect width="21.877" height="25" fill="white"/>
</clipPath>
</defs>
</svg>
