<svg width="28" height="25" viewBox="0 0 28 25" fill="none" xmlns="http://www.w3.org/2000/svg">
<g clip-path="url(#clip0_1145_1081)">
<path d="M15.9152 0H26.2397C26.9507 0 27.528 0.601604 27.528 1.3369V10.2698C27.528 11.0112 26.9507 11.6067 26.2397 11.6067H15.9152C15.2042 11.6067 14.6269 11.0051 14.6269 10.2698V1.3369C14.6208 0.601604 15.1981 0 15.9152 0ZM11.6128 0H1.28828C0.577297 0 0 0.601604 0 1.3369V10.2698C0 11.0112 0.577297 11.6067 1.28828 11.6067H11.6128C12.3238 11.6067 12.9011 11.0051 12.9011 10.2698V1.3369C12.9011 0.601604 12.3238 0 11.6128 0ZM0 14.7302V23.657C0 24.3984 0.577297 24.9939 1.28828 24.9939H11.6128C12.3238 24.9939 12.9011 24.3923 12.9011 23.657V14.7302C12.9011 13.9888 12.3238 13.3933 11.6128 13.3933H1.28828C0.577297 13.3933 0 13.9949 0 14.7302ZM15.9152 25H26.2397C26.9507 25 27.528 24.3984 27.528 23.6631V14.7302C27.528 13.9888 26.9507 13.3933 26.2397 13.3933H15.9152C15.2042 13.3933 14.6269 13.9949 14.6269 14.7302V23.657C14.6208 24.4045 15.1981 25 15.9152 25Z" fill="#666666"/>
</g>
<defs>
<clipPath id="clip0_1145_1081">
<rect width="27.528" height="25" fill="white"/>
</clipPath>
</defs>
</svg>
