<svg width="62" height="62" viewBox="0 0 62 62" fill="none" xmlns="http://www.w3.org/2000/svg">
<g clip-path="url(#clip0_1564_202)" filter="url(#filter0_dd_1564_202)">
<path d="M17.2297 9.82922H44.7411C46.0939 9.82922 47.3912 10.3666 48.3477 11.323C49.3043 12.2795 49.8418 13.5768 49.8419 14.9295V40.7193C49.8419 41.5536 49.5105 42.3537 48.9206 42.9436C48.3307 43.5335 47.5306 43.8649 46.6963 43.8649H15.2745C14.4402 43.8649 13.6401 43.5335 13.0502 42.9436C12.4603 42.3537 12.1289 41.5536 12.1289 40.7193V14.9295C12.129 13.5768 12.6665 12.2795 13.623 11.323C14.5796 10.3666 15.8769 9.82922 17.2297 9.82922Z" fill="#F3F3F3"/>
<path d="M17.2297 9.82922H44.7411C46.0939 9.82922 47.3912 10.3666 48.3477 11.323C49.3043 12.2795 49.8418 13.5768 49.8419 14.9295V18.6751H12.1289V14.9295C12.129 13.5768 12.6665 12.2795 13.623 11.323C14.5796 10.3666 15.8769 9.82922 17.2297 9.82922Z" fill="#612232"/>
<path d="M18.2671 12.4026C18.0638 12.402 17.8691 12.321 17.7253 12.1773C17.5816 12.0336 17.5006 11.8388 17.5 11.6355V9.82867H19.0343V11.6355C19.0336 11.8387 18.9525 12.0334 18.8088 12.1771C18.665 12.3208 18.4703 12.4019 18.2671 12.4026Z" fill="#612232"/>
<path d="M27.3444 12.4026C27.1411 12.4019 26.9465 12.3208 26.8027 12.1771C26.659 12.0334 26.5779 11.8387 26.5771 11.6355V9.82867H28.1115V11.6355C28.1109 11.8388 28.0299 12.0336 27.8862 12.1773C27.7424 12.321 27.5476 12.402 27.3444 12.4026Z" fill="#612232"/>
<path d="M35.835 12.4026C35.6317 12.402 35.4369 12.321 35.2932 12.1773C35.1495 12.0336 35.0685 11.8388 35.0679 11.6355V9.82867H36.6022V11.6355C36.6014 11.8387 36.5203 12.0334 36.3766 12.1771C36.2329 12.3208 36.0382 12.4019 35.835 12.4026Z" fill="#612232"/>
<path d="M44.3869 12.4026C44.1836 12.4018 43.9889 12.3208 43.8452 12.1771C43.7015 12.0334 43.6204 11.8387 43.6196 11.6355V9.82862C43.6196 9.7073 45.154 9.8452 45.154 9.8452V11.6355C45.1534 11.8387 45.0724 12.0335 44.9286 12.1772C44.7849 12.321 44.5901 12.402 44.3869 12.4026Z" fill="#612232"/>
<path d="M27.0416 8.63269H27.0415C26.6179 8.63269 26.2744 8.97614 26.2744 9.3998V11.3775C26.2744 11.8011 26.6179 12.1446 27.0415 12.1446H27.0416C27.4653 12.1446 27.8088 11.8011 27.8088 11.3775V9.3998C27.8088 8.97614 27.4653 8.63269 27.0416 8.63269Z" fill="#EBEBEB"/>
<path d="M35.5748 8.63269H35.5747C35.1511 8.63269 34.8076 8.97614 34.8076 9.3998V11.3775C34.8076 11.8011 35.1511 12.1446 35.5747 12.1446H35.5748C35.9985 12.1446 36.342 11.8011 36.342 11.3775V9.3998C36.342 8.97614 35.9985 8.63269 35.5748 8.63269Z" fill="#EBEBEB"/>
<path d="M44.11 8.63269H44.1099C43.6862 8.63269 43.3428 8.97614 43.3428 9.3998V11.3775C43.3428 11.8011 43.6862 12.1446 44.1099 12.1446H44.11C44.5337 12.1446 44.8771 11.8011 44.8771 11.3775V9.3998C44.8771 8.97614 44.5337 8.63269 44.11 8.63269Z" fill="#EBEBEB"/>
<path d="M29.0573 29.4301H24.0269V32.6915H29.0573V29.4301Z" fill="#E7E6E6"/>
<path d="M37.0632 29.4301H32.0327V32.6915H37.0632V29.4301Z" fill="#E7E6E6"/>
<path d="M29.0573 23.6252H24.0269V26.8867H29.0573V23.6252Z" fill="#E7E6E6"/>
<path d="M37.0632 23.6252H32.0327V26.8867H37.0632V23.6252Z" fill="#E7E6E6"/>
<path fill-rule="evenodd" clip-rule="evenodd" d="M40.8313 37.9911C40.8313 37.9911 38.7199 34.3907 35.7405 32.9003C33.9384 31.9993 30.6497 31.6277 30.6497 31.6277V35.4457L21.7412 29.0822L30.6497 22.7189V26.5369C30.6497 26.5369 35.4656 27.3451 38.2857 30.355C41.1059 33.3649 40.8312 37.991 40.8312 37.991L40.8313 37.9911Z" fill="#612232"/>
<path d="M46.6618 34.3892L37.7407 43.769C37.7407 43.769 38.0781 42.1176 38.0809 41.0797C38.0825 40.4205 37.9477 39.8454 37.9024 38.8988C37.7753 36.2433 39.313 35.567 40.039 35.1738C41.1526 34.5709 42.9784 35.0171 44.0789 34.9455C44.5448 34.9154 46.3153 34.8381 46.6618 34.3892Z" fill="#BABABA"/>
<path d="M49.6164 33.7987L37.7407 43.7688C37.7407 43.7688 38.3313 41.8732 38.4475 40.6576C38.5213 39.8857 38.42 39.1968 38.4681 38.0828C38.6029 34.9578 40.5474 34.3409 41.4737 33.9631C42.8941 33.3838 45.067 34.1145 46.414 34.1562C46.9833 34.1739 49.1452 34.285 49.6164 33.7987Z" fill="#E7E6E6"/>
<path d="M21.0515 23.6252H16.021V26.8867H21.0515V23.6252Z" fill="#E7E6E6"/>
<path d="M21.0515 29.4301H16.021V32.6915H21.0515V29.4301Z" fill="#E7E6E6"/>
<path d="M44.9128 29.4301H39.8823V32.6915H44.9128V29.4301Z" fill="#E7E6E6"/>
<path d="M21.0515 35.2351H16.021V38.4966H21.0515V35.2351Z" fill="#E7E6E6"/>
<path d="M29.0573 35.2351H24.0269V38.4966H29.0573V35.2351Z" fill="#E7E6E6"/>
<path d="M37.0632 35.2351H32.0327V38.4966H37.0632V35.2351Z" fill="#E7E6E6"/>
<path d="M45.0671 23.6252H40.0366V26.8867H45.0671V23.6252Z" fill="#E7E6E6"/>
<path d="M17.9606 8.63269H17.9605C17.5368 8.63269 17.1934 8.97614 17.1934 9.3998V11.3775C17.1934 11.8011 17.5368 12.1446 17.9605 12.1446H17.9606C18.3843 12.1446 18.7277 11.8011 18.7277 11.3775V9.3998C18.7277 8.97614 18.3843 8.63269 17.9606 8.63269Z" fill="#EBEBEB"/>
</g>
<defs>
<filter id="filter0_dd_1564_202" x="0.128906" y="0.63269" width="63.8711" height="64.618" filterUnits="userSpaceOnUse" color-interpolation-filters="sRGB">
<feFlood flood-opacity="0" result="BackgroundImageFix"/>
<feColorMatrix in="SourceAlpha" type="matrix" values="0 0 0 0 0 0 0 0 0 0 0 0 0 0 0 0 0 0 127 0" result="hardAlpha"/>
<feOffset dy="2"/>
<feGaussianBlur stdDeviation="5"/>
<feColorMatrix type="matrix" values="0 0 0 0 0.270588 0 0 0 0 0.270588 0 0 0 0 0.270588 0 0 0 0.1 0"/>
<feBlend mode="normal" in2="BackgroundImageFix" result="effect1_dropShadow_1564_202"/>
<feColorMatrix in="SourceAlpha" type="matrix" values="0 0 0 0 0 0 0 0 0 0 0 0 0 0 0 0 0 0 127 0" result="hardAlpha"/>
<feOffset dy="6"/>
<feGaussianBlur stdDeviation="6"/>
<feColorMatrix type="matrix" values="0 0 0 0 0.270833 0 0 0 0 0.270833 0 0 0 0 0.270833 0 0 0 0.15 0"/>
<feBlend mode="normal" in2="effect1_dropShadow_1564_202" result="effect2_dropShadow_1564_202"/>
<feBlend mode="normal" in="SourceGraphic" in2="effect2_dropShadow_1564_202" result="shape"/>
</filter>
<clipPath id="clip0_1564_202">
<rect width="39.8711" height="38.618" fill="white" transform="translate(12.1289 8.63269)"/>
</clipPath>
</defs>
</svg>
