<svg width="19" height="24" viewBox="0 0 19 24" fill="none" xmlns="http://www.w3.org/2000/svg">
<g clip-path="url(#clip0_1509_22982)">
<path d="M17.6353 0.0567627H1.23677C0.554126 0.0567627 0.000732422 0.610156 0.000732422 1.2928V22.254C0.000732422 22.9366 0.554126 23.49 1.23677 23.49H17.6353C18.318 23.49 18.8714 22.9366 18.8714 22.254V1.2928C18.8714 0.610156 18.318 0.0567627 17.6353 0.0567627Z" fill="#CBCACB"/>
<path d="M0.034668 7.56763V22.2824C0.034668 22.9561 0.56019 23.4385 1.23812 23.4385H17.6346C18.3083 23.4385 18.8475 22.9561 18.8475 22.2824V7.56763H0.034668Z" fill="#F7F4ED"/>
<path d="M17.6353 0H1.23885C0.565126 0 0.0354004 0.596998 0.0354004 1.27072V6.83185H18.8493V1.27072C18.8482 0.596998 18.309 0 17.6353 0ZM17.5869 5.99101H1.40072V1.26126H17.5869V5.99101Z" fill="#F7F4ED"/>
<path d="M3.85062 8.64697H1.73169C1.5262 8.64697 1.35962 8.81356 1.35962 9.01905V10.3024C1.35962 10.5079 1.5262 10.6745 1.73169 10.6745H3.85062C4.05611 10.6745 4.22269 10.5079 4.22269 10.3024V9.01905C4.22269 8.81356 4.05611 8.64697 3.85062 8.64697Z" fill="#BDCCD4"/>
<path d="M8.31375 8.64697H6.19483C5.98934 8.64697 5.82275 8.81356 5.82275 9.01905V10.3024C5.82275 10.5079 5.98934 10.6745 6.19483 10.6745H8.31375C8.51924 10.6745 8.68582 10.5079 8.68582 10.3024V9.01905C8.68582 8.81356 8.51924 8.64697 8.31375 8.64697Z" fill="#BDCCD4"/>
<path d="M12.7271 8.64697H10.6082C10.4027 8.64697 10.2361 8.81356 10.2361 9.01905V10.3024C10.2361 10.5079 10.4027 10.6745 10.6082 10.6745H12.7271C12.9326 10.6745 13.0992 10.5079 13.0992 10.3024V9.01905C13.0992 8.81356 12.9326 8.64697 12.7271 8.64697Z" fill="#BDCCD4"/>
<path d="M17.24 8.64697H15.1211C14.9156 8.64697 14.749 8.81356 14.749 9.01905V10.3024C14.749 10.5079 14.9156 10.6745 15.1211 10.6745H17.24C17.4455 10.6745 17.6121 10.5079 17.6121 10.3024V9.01905C17.6121 8.81356 17.4455 8.64697 17.24 8.64697Z" fill="white"/>
<path d="M3.80154 12.5138H1.68262C1.47713 12.5138 1.31055 12.6804 1.31055 12.8859V14.1692C1.31055 14.3747 1.47713 14.5413 1.68262 14.5413H3.80154C4.00703 14.5413 4.17362 14.3747 4.17362 14.1692V12.8859C4.17362 12.6804 4.00703 12.5138 3.80154 12.5138Z" fill="#BDCCD4"/>
<path d="M8.2637 12.5138H6.14478C5.93929 12.5138 5.77271 12.6804 5.77271 12.8859V14.1692C5.77271 14.3747 5.93929 14.5413 6.14478 14.5413H8.2637C8.46919 14.5413 8.63578 14.3747 8.63578 14.1692V12.8859C8.63578 12.6804 8.46919 12.5138 8.2637 12.5138Z" fill="#BDCCD4"/>
<path d="M12.7271 12.5138H10.6082C10.4027 12.5138 10.2361 12.6804 10.2361 12.8859V14.1692C10.2361 14.3747 10.4027 14.5413 10.6082 14.5413H12.7271C12.9326 14.5413 13.0992 14.3747 13.0992 14.1692V12.8859C13.0992 12.6804 12.9326 12.5138 12.7271 12.5138Z" fill="#BDCCD4"/>
<path d="M17.1909 12.5138H15.072C14.8665 12.5138 14.7 12.6804 14.7 12.8859V14.1692C14.7 14.3747 14.8665 14.5413 15.072 14.5413H17.1909C17.3964 14.5413 17.563 14.3747 17.563 14.1692V12.8859C17.563 12.6804 17.3964 12.5138 17.1909 12.5138Z" fill="white"/>
<path d="M3.87552 16.3796H1.75659C1.5511 16.3796 1.38452 16.5462 1.38452 16.7517V18.035C1.38452 18.2405 1.5511 18.4071 1.75659 18.4071H3.87552C4.08101 18.4071 4.24759 18.2405 4.24759 18.035V16.7517C4.24759 16.5462 4.08101 16.3796 3.87552 16.3796Z" fill="#BDCCD4"/>
<path d="M8.33865 16.3796H6.21973C6.01424 16.3796 5.84766 16.5462 5.84766 16.7517V18.035C5.84766 18.2405 6.01424 18.4071 6.21973 18.4071H8.33865C8.54414 18.4071 8.71073 18.2405 8.71073 18.035V16.7517C8.71073 16.5462 8.54414 16.3796 8.33865 16.3796Z" fill="#BDCCD4"/>
<path d="M12.8018 16.3796H10.6829C10.4774 16.3796 10.3108 16.5462 10.3108 16.7517V18.035C10.3108 18.2405 10.4774 18.4071 10.6829 18.4071H12.8018C13.0073 18.4071 13.1739 18.2405 13.1739 18.035V16.7517C13.1739 16.5462 13.0073 16.3796 12.8018 16.3796Z" fill="#BDCCD4"/>
<path d="M3.80154 20.2465H1.68262C1.47713 20.2465 1.31055 20.413 1.31055 20.6185V21.9019C1.31055 22.1074 1.47713 22.2739 1.68262 22.2739H3.80154C4.00703 22.2739 4.17362 22.1074 4.17362 21.9019V20.6185C4.17362 20.413 4.00703 20.2465 3.80154 20.2465Z" fill="#BDCCD4"/>
<path d="M8.2637 20.2465H6.14478C5.93929 20.2465 5.77271 20.413 5.77271 20.6185V21.9019C5.77271 22.1074 5.93929 22.2739 6.14478 22.2739H8.2637C8.46919 22.2739 8.63578 22.1074 8.63578 21.9019V20.6185C8.63578 20.413 8.46919 20.2465 8.2637 20.2465Z" fill="#BDCCD4"/>
<path d="M12.7271 20.2465H10.6082C10.4027 20.2465 10.2361 20.413 10.2361 20.6185V21.9019C10.2361 22.1074 10.4027 22.2739 10.6082 22.2739H12.7271C12.9326 22.2739 13.0992 22.1074 13.0992 21.9019V20.6185C13.0992 20.413 12.9326 20.2465 12.7271 20.2465Z" fill="#BDCCD4"/>
<path d="M17.1909 16.3796H15.072C14.8665 16.3796 14.7 16.5462 14.7 16.7517V21.9019C14.7 22.1074 14.8665 22.2739 15.072 22.2739H17.1909C17.3964 22.2739 17.563 22.1074 17.563 21.9019V16.7517C17.563 16.5462 17.3964 16.3796 17.1909 16.3796Z" fill="white"/>
<path d="M15.4851 9.4857H16.0022V8.96753H16.3533V9.4857H16.8788V9.8378H16.3533V10.3528H16.0022V9.8378H15.4851V9.4857Z" fill="#112C4C"/>
<path d="M16.8756 13.3484V13.7142H15.4851V13.3484H16.8756Z" fill="#112C4C"/>
<path d="M15.4851 18.9379H16.9103V19.2416H15.4851V18.9379ZM15.4851 19.4129H16.9103V19.7167H15.4851V19.4129Z" fill="#112C4C"/>
</g>
<defs>
<clipPath id="clip0_1509_22982">
<rect width="18.8706" height="23.49" fill="white"/>
</clipPath>
</defs>
</svg>
