<svg width="20" height="20" viewBox="0 0 20 20" fill="none" xmlns="http://www.w3.org/2000/svg">
<path d="M9.40534 14.6198C9.53757 14.7521 9.80203 14.8843 9.93426 14.8843C10.1987 14.8843 10.331 14.7521 10.4632 14.6198L14.6946 10.3884C14.8268 10.2562 14.9591 9.99175 14.9591 9.85952C14.9591 9.59506 14.8268 9.46283 14.6946 9.3306C14.4301 9.06614 13.9012 9.06614 13.6367 9.3306L10.7277 12.2397V3.64465C10.7277 3.24795 10.331 2.85126 9.93426 2.85126C9.53757 2.85126 9.14087 3.24795 9.14087 3.64465V12.2397L6.23178 9.3306C5.96732 9.06614 5.4384 9.06614 5.17393 9.3306C4.90947 9.59506 4.90947 10.124 5.17393 10.3884L9.40534 14.6198Z" fill="#9D2449"/>
<path d="M17.2066 14.8843H2.79339C2.39669 14.8843 2 15.281 2 15.6777C2 16.0744 2.39669 16.4711 2.79339 16.4711H17.2066C17.6033 16.4711 18 16.0744 18 15.6777C18 15.281 17.6033 14.8843 17.2066 14.8843Z" fill="#9D2449"/>
</svg>
