<svg width="16" height="16" viewBox="0 0 16 16" fill="none" xmlns="http://www.w3.org/2000/svg">
<g clip-path="url(#clip0_2225_15170)">
<path d="M7.60645 15.1066C3.50645 15.1066 0.106445 11.7066 0.106445 7.60663C0.106445 3.50663 3.50645 0.106628 7.60645 0.106628C11.7064 0.106628 15.1064 3.50663 15.1064 7.60663C15.1064 11.7066 11.7064 15.1066 7.60645 15.1066ZM7.60645 1.20663C4.10645 1.20663 1.20645 4.10663 1.20645 7.60663C1.20645 11.1066 4.10645 14.0066 7.60645 14.0066C11.1064 14.0066 14.0064 11.1066 14.0064 7.60663C14.0064 4.10663 11.1064 1.20663 7.60645 1.20663Z" fill="#9D2449"/>
<path d="M3.38138 7.93824C3.31067 7.86753 3.23996 7.6554 3.23996 7.51398C3.23996 7.23114 3.45209 7.019 3.80565 6.94829L11.4424 6.94829C11.7252 6.94829 11.9374 7.16043 12.0081 7.51398C12.0081 7.79682 11.796 8.00895 11.4424 8.07967L3.80565 8.07966C3.59351 8.15038 3.5228 8.07966 3.38138 7.93824Z" fill="#9D2449"/>
</g>
<defs>
<clipPath id="clip0_2225_15170">
<rect width="15" height="15" fill="white" transform="translate(0.106445 0.106628)"/>
</clipPath>
</defs>
</svg>
