<svg width="22" height="22" viewBox="0 0 22 22" fill="none" xmlns="http://www.w3.org/2000/svg">
<g clip-path="url(#clip0_2_753)">
<path d="M16.6824 16.3331C13.7832 19.2322 8.9749 19.2322 6.07576 16.3331C3.17662 13.4339 3.17662 8.62562 6.07576 5.72648C8.9749 2.82735 13.7832 2.82735 16.6824 5.72648C19.5815 8.62562 19.5815 13.4339 16.6824 16.3331ZM6.85358 6.5043C4.37871 8.97918 4.37871 13.0804 6.85358 15.5553C9.32845 18.0301 13.4297 18.0301 15.9045 15.5553C18.3794 13.0804 18.3794 8.97918 15.9045 6.5043C13.4297 4.02943 9.32845 4.02943 6.85358 6.5043Z" fill="#9D2449"/>
<path d="M15.5508 11.3833C15.4801 11.454 15.268 11.5248 15.1266 11.5248L7.56053 11.5955C7.27769 11.5955 7.06556 11.3833 6.99485 11.0298C6.99485 10.7469 7.20698 10.5348 7.56053 10.4641L15.1973 10.4641C15.4801 10.4641 15.6923 10.6762 15.763 11.0298C15.763 11.1712 15.6215 11.3126 15.5508 11.3833Z" fill="#9D2449"/>
<path d="M11.7324 15.2017C11.6617 15.2725 11.4495 15.3432 11.3081 15.3432C11.0253 15.3432 10.8131 15.131 10.7424 14.7775L10.7424 7.14073C10.7424 6.85789 10.9546 6.64576 11.3081 6.57504C11.591 6.57504 11.8031 6.78718 11.8738 7.14073L11.8738 14.7775C11.9445 14.9896 11.8738 15.0603 11.7324 15.2017Z" fill="#9D2449"/>
</g>
<defs>
<clipPath id="clip0_2_753">
<rect width="15" height="15" fill="white" transform="translate(0.772461 11.0298) rotate(-45)"/>
</clipPath>
</defs>
</svg>
