<svg width="25" height="25" viewBox="0 0 25 25" fill="none" xmlns="http://www.w3.org/2000/svg">
<g clip-path="url(#clip0_1145_1083)">
<path d="M12.4804 0C19.5279 0 25 5.43844 25 12.5028C25 19.9204 19.0289 25.0056 12.4804 25.0056C5.70195 25 0 19.4158 0 12.5028C0 5.80287 5.27585 0 12.4804 0ZM2.81453 9.12761C2.43889 10.1536 2.25387 11.2806 2.25387 12.4972C2.25387 18.087 6.89616 22.7013 12.5196 22.7013C18.6869 22.7013 21.451 17.5712 21.5183 17.4535L16.8087 15.3566C16.4218 17.2292 14.7342 18.0309 13.3718 18.1487V20.0718H11.9197V18.1487C10.5349 18.1319 9.26777 17.6329 8.12402 16.6517L9.84526 14.9137C11.4431 16.3938 14.2016 16.5172 14.2016 14.8015C14.2016 14.4876 14.0895 14.2353 13.8708 14.039C13.1532 13.7363 13.7755 14.0334 2.81453 9.12761ZM12.5196 2.23144C10.5853 2.23144 6.85131 2.66876 3.92465 6.91859L8.7015 9.06033C9.2061 7.48486 10.7367 6.89617 11.9197 6.82889V4.91142H13.3718V6.83449C14.5156 6.89616 15.5584 7.28302 16.4947 7.99507L14.8688 9.66584C12.7159 8.15766 10.6582 9.26217 11.3422 10.2265C14.0334 11.4431 13.5512 11.2245 16.0294 12.3234L22.4378 15.1828C22.6452 14.3081 22.7517 13.4111 22.7517 12.5084C22.7517 9.63781 21.7538 7.21574 19.7634 5.25342C17.7787 3.23503 15.3622 2.23144 12.5196 2.23144Z" fill="#666666"/>
</g>
<defs>
<clipPath id="clip0_1145_1083">
<rect width="25" height="25" fill="white"/>
</clipPath>
</defs>
</svg>
