<svg width="21" height="25" viewBox="0 0 21 25" fill="none" xmlns="http://www.w3.org/2000/svg">
<g clip-path="url(#clip0_1145_1058)">
<path d="M11.6152 24.9531H20.5892C20.7923 24.9531 20.9642 24.7865 20.9642 24.5781V18.599C20.9642 18.3958 20.7975 18.224 20.5892 18.224H17.2246V21.2135L16.1048 20.4635L14.985 21.2135V18.224H11.6152C11.4121 18.224 11.2402 18.3906 11.2402 18.599V24.5833C11.2402 24.7865 11.4121 24.9531 11.6152 24.9531Z" fill="#666666"/>
<path d="M5.36003 7.14583C7.33329 7.14583 8.93294 5.54618 8.93294 3.57292C8.93294 1.59965 7.33329 0 5.36003 0C3.38676 0 1.78711 1.59965 1.78711 3.57292C1.78711 5.54618 3.38676 7.14583 5.36003 7.14583Z" fill="#666666"/>
<path d="M1.78646 17.8594V23.2188C1.78646 24.2031 2.58854 25.0052 3.57292 25.0052H7.14583C8.13021 25.0052 8.93229 24.2031 8.93229 23.2188V17.8594C9.91667 17.8594 10.7188 17.0573 10.7188 16.0729V10.7136C10.7188 9.23438 9.52083 8.03647 8.04167 8.03647H7.38542C6.76562 8.31772 6.08854 8.48439 5.36458 8.48439C4.64062 8.48439 3.96354 8.31772 3.34375 8.03647H2.67708C1.19792 8.03647 0 9.23438 0 10.7136V16.0729C0 17.0573 0.802083 17.8594 1.78646 17.8594Z" fill="#666666"/>
</g>
<defs>
<clipPath id="clip0_1145_1058">
<rect width="20.9635" height="25" fill="white"/>
</clipPath>
</defs>
</svg>
