<svg width="28" height="30" viewBox="0 0 28 30" fill="none" xmlns="http://www.w3.org/2000/svg">
<g clip-path="url(#clip0_1145_1062)">
<path d="M18.5983 22.7229L14.4041 18.5287V12.5764C14.4041 12.4759 14.3225 12.3943 14.222 12.3943H13.6255C13.5251 12.3943 13.4434 12.4759 13.4434 12.5764V18.3843L9.21782 22.6099C9.14875 22.6789 9.14875 22.792 9.21782 22.861L9.63849 23.2817C9.70756 23.3508 9.82058 23.3508 9.88964 23.2817L13.8516 19.3198L17.9202 23.3884C17.9893 23.4575 18.1023 23.4575 18.1714 23.3884L18.592 22.9678C18.6674 22.905 18.6674 22.792 18.5983 22.7229Z" fill="#666666"/>
<path d="M13.7441 5.55044C15.2761 5.55044 16.5193 4.30724 16.5193 2.77522C16.5193 1.2432 15.2761 0 13.7441 0C12.2121 0 10.9689 1.2432 10.9689 2.77522C10.9689 4.30724 12.2121 5.55044 13.7441 5.55044ZM15.8224 6.25366L14.7864 10.4039L14.0957 7.45919L14.7864 6.24738H12.7081L13.3988 7.45919L12.7081 10.4039L11.6721 6.25366C10.1275 6.32901 8.89062 7.59104 8.89062 9.15446V10.0586C8.89062 10.63 9.35525 11.1009 9.9329 11.1009H17.5616C18.133 11.1009 18.6039 10.6362 18.6039 10.0586V9.15446C18.5976 7.59104 17.367 6.32901 15.8224 6.25366Z" fill="#666666"/>
<path d="M4.8535 24.4496C6.38552 24.4496 7.62871 23.2064 7.62871 21.6743C7.62871 20.1423 6.38552 18.8991 4.8535 18.8991C3.32147 18.8991 2.07828 20.1423 2.07828 21.6743C2.07828 23.2064 3.32147 24.4496 4.8535 24.4496ZM6.93177 25.1591L5.89577 29.3093L5.20511 26.3646L5.89577 25.1528H3.8175L4.50816 26.3646L3.8175 29.3093L2.7815 25.1591C1.23064 25.2281 0 26.4964 0 28.0599V28.964C0 29.5354 0.46463 30.0063 1.04228 30.0063H8.67099C9.24236 30.0063 9.71327 29.5417 9.71327 28.964V28.0599C9.70699 26.4964 8.47635 25.2281 6.93177 25.1591Z" fill="#666666"/>
<path d="M22.9043 24.4496C24.4363 24.4496 25.6795 23.2064 25.6795 21.6743C25.6795 20.1423 24.4363 18.8991 22.9043 18.8991C21.3723 18.8991 20.1291 20.1423 20.1291 21.6743C20.1291 23.2064 21.3723 24.4496 22.9043 24.4496ZM24.9826 25.1591L23.9466 29.3093L23.2559 26.3646L23.9466 25.1528H21.8683L22.5589 26.3646L21.8683 29.3093L20.8323 25.1591C19.2877 25.2344 18.0508 26.4964 18.0508 28.0599V28.964C18.0508 29.5354 18.5154 30.0063 19.0931 30.0063H26.7218C27.2931 30.0063 27.7641 29.5417 27.7641 28.964V28.0599C27.7578 26.4964 26.5271 25.2281 24.9826 25.1591Z" fill="#666666"/>
</g>
<defs>
<clipPath id="clip0_1145_1062">
<rect width="27.7585" height="30" fill="white"/>
</clipPath>
</defs>
</svg>
