<svg width="38" height="30" viewBox="0 0 38 30" fill="none" xmlns="http://www.w3.org/2000/svg">
<g clip-path="url(#clip0_1145_1076)">
<path d="M5.86205 7.81004C8.01874 7.81004 9.76708 6.06171 9.76708 3.90502C9.76708 1.74834 8.01874 0 5.86205 0C3.70537 0 1.95703 1.74834 1.95703 3.90502C1.95703 6.06171 3.70537 7.81004 5.86205 7.81004Z" fill="#666666"/>
<path d="M10.5671 10.9054C9.85993 10.1982 8.88623 9.76768 7.81004 9.76768H3.90502C1.75265 9.76768 0 11.5203 0 13.6727V15.6303C0 16.7065 0.871199 17.588 1.95764 17.588H5.9754C6.36488 14.6874 8.10728 12.248 10.5671 10.9054Z" fill="#666666"/>
<path d="M37.534 12.2685C37.493 11.9918 37.2573 11.7971 36.9806 11.7971H36.2323C36.0684 11.3358 35.8224 10.9156 35.5149 10.5569L35.8839 9.91117C36.0171 9.67544 35.9659 9.36795 35.7609 9.20396C35.3304 8.84523 34.8384 8.55825 34.3055 8.36351C34.0492 8.27127 33.752 8.36351 33.6187 8.6095L33.2498 9.25521C32.7783 9.17322 32.2863 9.17322 31.8149 9.25521L31.4459 8.6095C31.3024 8.35326 31.0154 8.26102 30.7489 8.35326C30.2159 8.548 29.724 8.83499 29.2935 9.19371C29.0783 9.36795 29.027 9.66519 29.1705 9.90092L29.5395 10.5466C29.2218 10.9054 28.986 11.3358 28.822 11.7868H28.0738C27.7971 11.7868 27.5614 11.9816 27.5204 12.2583C27.4281 12.822 27.4281 13.396 27.5204 13.9392C27.5614 14.2159 27.7971 14.4107 28.0738 14.4107H28.822C28.986 14.8719 29.232 15.2921 29.5395 15.6508L29.1705 16.2965C29.0373 16.5323 29.0885 16.8398 29.2935 17.0038C29.724 17.3625 30.2159 17.6495 30.7489 17.8442C31.0052 17.9365 31.3024 17.8442 31.4356 17.5982L31.8046 16.9525C32.2761 17.0345 32.768 17.0345 33.2395 16.9525L33.6085 17.5982C33.7417 17.834 34.039 17.9365 34.2952 17.8442C34.8282 17.6495 35.3202 17.3625 35.7506 17.0038C35.9659 16.8295 36.0171 16.5323 35.8736 16.2965L35.5046 15.6508C35.8224 15.2921 36.0581 14.8616 36.2221 14.4107H36.9703C37.247 14.4107 37.4828 14.2159 37.5238 13.9392C37.6263 13.3755 37.6263 12.8118 37.534 12.2685ZM31.3331 14.3082C29.9905 12.5658 31.9788 10.5671 33.7315 11.9098C35.0639 13.6522 33.0755 15.6508 31.3331 14.3082Z" fill="#666666"/>
<path d="M27.633 22.0465L26.1058 21.288C26.28 20.3348 26.28 19.3611 26.1058 18.4079L27.633 17.6495C28.0942 17.383 28.2684 16.8295 28.0839 16.3273C27.6842 15.2306 26.9052 14.2262 26.1775 13.3447C25.8393 12.945 25.2551 12.8425 24.8041 13.109L23.4819 13.8674C22.7542 13.2422 21.9138 12.7605 20.9913 12.4325V10.9054C20.9913 10.3724 20.6019 9.92142 20.0894 9.83943C18.9312 9.64469 17.7628 9.65494 16.6456 9.83943C16.1331 9.93167 15.7539 10.3826 15.7539 10.9054V12.4325C14.8315 12.7503 13.991 13.2525 13.2633 13.8674L11.9411 13.109C11.4799 12.8425 10.9059 12.945 10.5677 13.3447C9.82974 14.2262 9.06104 15.2306 8.65106 16.3273C8.46657 16.8193 8.67156 17.383 9.12253 17.6392L10.6292 18.4079C10.455 19.3611 10.455 20.3348 10.6292 21.2778L9.12253 22.0362C8.66131 22.3027 8.46657 22.8562 8.65106 23.3584C9.05079 24.4551 9.82974 25.4595 10.5677 26.341C10.9059 26.7407 11.4901 26.8432 11.9411 26.5767L13.2633 25.8182C13.991 26.4435 14.8315 26.9252 15.7539 27.2532V28.7803C15.7539 29.3133 16.1434 29.7643 16.6558 29.8463C17.814 30.041 18.9825 30.041 20.0996 29.8463C20.6121 29.754 20.9913 29.303 20.9913 28.7803V27.2634C21.9138 26.9457 22.7542 26.4435 23.4819 25.8285L24.8041 26.5869C25.2653 26.8534 25.8393 26.7509 26.1775 26.3512C26.9155 25.4698 27.7047 24.4653 28.1044 23.3686C28.2889 22.8664 28.0942 22.3027 27.633 22.0465ZM20.7761 22.2412C17.2811 24.9265 13.3043 20.9395 15.9896 17.4547C19.4744 14.7591 23.4614 18.7462 20.7761 22.2412Z" fill="#666666"/>
</g>
<defs>
<clipPath id="clip0_1145_1076">
<rect width="37.6051" height="30" fill="white"/>
</clipPath>
</defs>
</svg>
