<svg width="19" height="25" viewBox="0 0 19 25" fill="none" xmlns="http://www.w3.org/2000/svg">
<g clip-path="url(#clip0_1145_1067)">
<path d="M14.0645 12.5H4.68815V15.6237H14.0645V12.5ZM18.4073 5.12767L13.6249 0.3401C13.4104 0.120343 13.1122 0 12.7982 0H12.5V6.24738H18.7474V5.94914C18.7474 5.64567 18.627 5.34743 18.4073 5.12767ZM10.9355 6.63981V0H1.17204C0.523232 0 0 0.523232 0 1.17204V23.828C0 24.4768 0.523232 25 1.17204 25H17.5753C18.2242 25 18.7474 24.4768 18.7474 23.828V7.81185H12.1076C11.464 7.81185 10.9355 7.28338 10.9355 6.63981ZM3.12369 3.51612C3.12369 3.30159 3.29636 3.12369 3.51612 3.12369H7.42465C7.63918 3.12369 7.81708 3.29636 7.81708 3.51612V4.29573C7.81708 4.51026 7.64441 4.68815 7.42465 4.68815H3.51612C3.30159 4.68815 3.12369 4.51549 3.12369 4.29573V3.51612ZM3.12369 6.63981C3.12369 6.42528 3.29636 6.24738 3.51612 6.24738H7.42465C7.63918 6.24738 7.81708 6.42005 7.81708 6.63981V7.41942C7.81708 7.63395 7.64441 7.81185 7.42465 7.81185H3.51612C3.30159 7.81185 3.12369 7.63918 3.12369 7.41942V6.63981ZM15.6237 21.4839C15.6237 21.6984 15.451 21.8763 15.2313 21.8763H11.3227C11.1082 21.8763 10.9303 21.7036 10.9303 21.4839V20.7043C10.9303 20.4897 11.103 20.3118 11.3227 20.3118H15.2313C15.4458 20.3118 15.6237 20.4845 15.6237 20.7043V21.4839ZM15.6237 11.7204V16.4085C15.6237 16.8376 15.2731 17.1882 14.8441 17.1882H3.90854C3.47949 17.1882 3.12892 16.8376 3.12892 16.4085V11.7204C3.12892 11.2913 3.47949 10.9408 3.90854 10.9408H14.8441C15.2731 10.9355 15.6237 11.2861 15.6237 11.7204Z" fill="#666666"/>
</g>
<defs>
<clipPath id="clip0_1145_1067">
<rect width="18.7474" height="25" fill="white"/>
</clipPath>
</defs>
</svg>
