<svg width="28" height="25" viewBox="0 0 28 25" fill="none" xmlns="http://www.w3.org/2000/svg">
<g clip-path="url(#clip0_1312_994)">
<path d="M15.9152 0H26.2397C26.9507 0 27.528 0.601604 27.528 1.3369V10.2698C27.528 11.0112 26.9507 11.6067 26.2397 11.6067H15.9152C15.2042 11.6067 14.6269 11.0051 14.6269 10.2698V1.3369C14.6208 0.601604 15.1981 0 15.9152 0ZM0 14.7302V23.657C0 24.3984 0.577297 24.9939 1.28828 24.9939H11.6128C12.3238 24.9939 12.9011 24.3923 12.9011 23.657V14.7302C12.9011 13.9888 12.3238 13.3933 11.6128 13.3933H1.28828C0.577297 13.3933 0 13.9949 0 14.7302Z" fill="#666666"/>
</g>
<defs>
<clipPath id="clip0_1312_994">
<rect width="27.528" height="25" fill="white"/>
</clipPath>
</defs>
</svg>
