<svg width="29" height="25" viewBox="0 0 29 25" fill="none" xmlns="http://www.w3.org/2000/svg">
<g clip-path="url(#clip0_1145_1069)">
<path d="M27.7526 15.9684C27.1737 15.4421 26.2684 15.4789 25.6632 15.9684L21.1263 19.5947C20.5684 20.0421 19.8737 20.2842 19.1632 20.2842H13.3526C12.9211 20.2842 12.5684 19.9316 12.5684 19.5C12.5684 19.0684 12.9211 18.7158 13.3526 18.7158H17.1947C17.9737 18.7158 18.7 18.1789 18.8263 17.4105C18.8421 17.3211 18.8474 17.2316 18.8474 17.1421C18.8474 16.2737 18.1421 15.5737 17.2737 15.5737H9.42632C8.1 15.5737 6.81579 16.0316 5.78947 16.8632L3.50526 18.7158H0.784211C0.352632 18.7158 0 19.0684 0 19.5V24.2158C0 24.6474 0.352632 25 0.784211 25H18.3C19.0158 25 19.7053 24.7579 20.2632 24.3105L27.6895 18.3684C28.3684 17.8263 28.4789 16.8368 27.9368 16.1579C27.8842 16.0947 27.8211 16.0316 27.7526 15.9684Z" fill="#666666"/>
<path d="M20.3257 7.69474L19.2626 7.07895C19.3679 6.5 19.3679 5.90527 19.2626 5.32105L20.3257 4.70527C20.4468 4.63684 20.5047 4.48948 20.4626 4.35263C20.1836 3.46316 19.71 2.6579 19.0942 1.98421C18.9994 1.88421 18.8415 1.8579 18.7257 1.92632L17.6626 2.54211C17.2152 2.1579 16.6994 1.8579 16.1415 1.66316V0.442108C16.1415 0.300002 16.0415 0.17895 15.9047 0.147371C14.9889 -0.0578922 14.0468 -0.0473659 13.1731 0.147371C13.0363 0.17895 12.9363 0.300002 12.9363 0.442108V1.67369C12.3836 1.87369 11.8679 2.16842 11.4152 2.55263L10.3521 1.93684C10.231 1.86842 10.0784 1.88948 9.98364 1.99474C9.36786 2.66316 8.89417 3.46842 8.61522 4.36316C8.57312 4.5 8.63101 4.64211 8.75207 4.71579L9.81522 5.33158C9.70996 5.91053 9.70996 6.50527 9.81522 7.08948L8.75207 7.70527C8.63101 7.77369 8.57312 7.92105 8.61522 8.0579C8.89417 8.94737 9.36786 9.75263 9.98364 10.4263C10.0784 10.5263 10.2363 10.5526 10.3521 10.4842L11.4152 9.86842C11.8626 10.2526 12.3784 10.5526 12.9363 10.7474V11.9789C12.9363 12.1211 13.0363 12.2421 13.1731 12.2737C14.0889 12.4789 15.031 12.4684 15.9047 12.2737C16.0415 12.2421 16.1415 12.1211 16.1415 11.9789V10.7474C16.6942 10.5474 17.21 10.2526 17.6626 9.86842L18.7257 10.4842C18.8468 10.5526 18.9994 10.5316 19.0942 10.4263C19.71 9.7579 20.1836 8.95263 20.4626 8.0579C20.5047 7.90527 20.4521 7.76316 20.3257 7.69474ZM14.5415 8.2C13.4363 8.2 12.5415 7.3 12.5415 6.2C12.5415 5.1 13.4415 4.2 14.5415 4.2C15.6415 4.2 16.5415 5.1 16.5415 6.2C16.5415 7.3 15.6415 8.2 14.5415 8.2Z" fill="#666666"/>
</g>
<defs>
<clipPath id="clip0_1145_1069">
<rect width="28.2842" height="25" fill="white"/>
</clipPath>
</defs>
</svg>
