<svg width="11" height="11" viewBox="0 0 11 11" fill="none" xmlns="http://www.w3.org/2000/svg">
<path d="M10.4544 3.32293C10.1816 2.67635 9.78873 2.09252 9.28947 1.59326C8.79021 1.094 8.20911 0.701144 7.5598 0.428325C6.88867 0.144594 6.17388 0 5.44 0C4.70612 0 3.99406 0.144594 3.32293 0.428325C2.67635 0.701144 2.09252 1.094 1.59326 1.59326C1.094 2.09252 0.701144 2.67362 0.428325 3.32293C0.144594 3.99406 0 4.70612 0 5.44C0 6.17388 0.144594 6.88594 0.428325 7.55707C0.701144 8.20365 1.094 8.78748 1.59326 9.28674C2.09252 9.786 2.67362 10.1789 3.32293 10.4517C3.99406 10.7354 4.70612 10.88 5.44 10.88C6.17388 10.88 6.88594 10.7354 7.55707 10.4517C8.20365 10.1789 8.78748 9.786 9.28674 9.28674C9.786 8.78748 10.1789 8.20638 10.4517 7.55707C10.7354 6.88594 10.88 6.17388 10.88 5.44C10.88 4.70612 10.7381 3.99406 10.4544 3.32293ZM5.44 10.2443C2.79093 10.2443 0.635667 8.08907 0.635667 5.44C0.635667 2.79093 2.79093 0.635667 5.44 0.635667C8.08907 0.635667 10.2443 2.79093 10.2443 5.44C10.2443 8.08907 8.08907 10.2443 5.44 10.2443Z" fill="#BB945C"/>
<path d="M5.44549 8.49829C5.28453 8.49829 5.14267 8.43827 5.02535 8.32096C4.90804 8.20365 4.84802 8.06451 4.84802 7.90082C4.84802 7.73713 4.90804 7.59526 5.02535 7.47795C5.14267 7.36064 5.2818 7.30334 5.44549 7.30334C5.60646 7.30334 5.74832 7.36064 5.86564 7.47522C5.98295 7.5898 6.04297 7.73167 6.04297 7.89809C6.04297 8.06178 5.98295 8.20365 5.86564 8.32096C5.74287 8.441 5.60373 8.49829 5.44549 8.49829Z" fill="#BB945C"/>
<path d="M3.4484 3.67759L3.78942 3.92585C3.78942 3.92585 3.9613 4.02407 4.07861 3.9013C4.58332 3.282 4.99255 3.27927 4.99255 3.27927C4.99255 3.27927 5.58184 3.15923 5.9747 3.30383C6.41393 3.45388 6.52852 3.66122 6.52852 3.66122C6.52852 3.66122 6.7495 3.87402 6.6813 4.25869C6.61309 4.64336 6.26388 4.83161 6.26388 4.83161C6.26388 4.83161 5.6364 5.2272 5.39359 5.46182C5.15078 5.69644 5.04439 6.11113 5.04439 6.11113C5.04439 6.11113 5.00619 6.3212 5.01983 6.52036C5.03347 6.70314 5.21626 6.74134 5.21626 6.74134H5.60912C5.60912 6.74134 5.83829 6.72497 5.8492 6.54491C5.86284 6.16023 6.03744 5.99927 6.03744 5.99927C6.03744 5.99927 6.43303 5.60369 6.86408 5.39362C7.34152 5.08806 7.51339 4.52332 7.51339 4.52332C7.51339 4.52332 7.61161 4.27233 7.52158 3.78126C7.43155 3.18924 6.86408 2.77456 6.86408 2.77456C6.86408 2.77456 6.29117 2.36806 5.36085 2.3817C4.43054 2.39534 3.94493 2.83458 3.94493 2.83458C3.94493 2.83458 3.57662 3.11285 3.43203 3.37203C3.32017 3.56027 3.4484 3.67759 3.4484 3.67759Z" fill="#BB945C"/>
</svg>
