<svg width="33" height="25" viewBox="0 0 33 25" fill="none" xmlns="http://www.w3.org/2000/svg">
<g clip-path="url(#clip0_1145_1072)">
<path d="M28.4628 0H4.06404C1.82556 0 0 1.82556 0 4.06404V14.829C0 17.0748 1.82556 18.8931 4.06404 18.8931H10.1637V24.2321C10.1637 24.8551 10.8737 25.2173 11.3808 24.8479L19.3132 18.8931H28.4628C30.7085 18.8931 32.5268 17.0675 32.5268 14.829V4.06404C32.534 1.82556 30.7085 0 28.4628 0ZM8.13532 10.7505C7.01246 10.7505 6.09968 9.84497 6.09968 8.71486C6.09968 7.58476 7.00522 6.67922 8.13532 6.67922C9.26543 6.67922 10.171 7.58476 10.171 8.71486C10.171 9.84497 9.25818 10.7505 8.13532 10.7505ZM16.2634 10.7505C15.1405 10.7505 14.2278 9.84497 14.2278 8.71486C14.2278 7.58476 15.1333 6.67922 16.2634 6.67922C17.3935 6.67922 18.299 7.58476 18.299 8.71486C18.299 9.84497 17.3935 10.7505 16.2634 10.7505ZM24.3987 10.7505C23.2759 10.7505 22.3631 9.84497 22.3631 8.71486C22.3631 7.58476 23.2686 6.67922 24.3987 6.67922C25.5216 6.67922 26.4344 7.58476 26.4344 8.71486C26.4344 9.84497 25.5216 10.7505 24.3987 10.7505Z" fill="#666666"/>
</g>
<defs>
<clipPath id="clip0_1145_1072">
<rect width="32.534" height="25" fill="white"/>
</clipPath>
</defs>
</svg>
