<svg width="36" height="25" viewBox="0 0 36 25" fill="none" xmlns="http://www.w3.org/2000/svg">
<g clip-path="url(#clip0_1145_1074)">
<path d="M5.35543 10.7188C7.32388 10.7188 8.92572 9.11699 8.92572 7.14855C8.92572 5.18011 7.32388 3.57029 5.35543 3.57029C3.38699 3.57029 1.78515 5.17214 1.78515 7.14058C1.78515 9.10902 3.38699 10.7188 5.35543 10.7188ZM30.3634 10.7188C32.3318 10.7188 33.9337 9.11699 33.9337 7.14855C33.9337 5.18011 32.3318 3.57826 30.3634 3.57826C28.395 3.57826 26.7931 5.18011 26.7931 7.14855C26.7931 9.11699 28.387 10.7188 30.3634 10.7188ZM32.1485 12.504H28.5783C27.598 12.504 26.7055 12.9025 26.0599 13.54C28.3073 14.7753 29.9091 16.9987 30.2518 19.6446H33.9337C34.9219 19.6446 35.7188 18.8476 35.7188 17.8594V16.0743C35.7188 14.1058 34.117 12.504 32.1485 12.504ZM17.8594 12.504C21.3102 12.504 24.1074 9.70673 24.1074 6.25598C24.1074 2.80523 21.3102 0 17.8594 0C14.4087 0 11.6114 2.79726 11.6114 6.24801C11.6114 9.69876 14.4007 12.504 17.8594 12.504ZM22.147 14.2891H21.6847C20.5212 14.847 19.2381 15.1817 17.8594 15.1817C16.4807 15.1817 15.2056 14.847 14.0341 14.2891H13.5719C10.0255 14.2891 7.14058 17.1661 7.14058 20.7204V22.3302C7.14058 23.8126 8.34396 25.008 9.8183 25.008H25.8926C27.3749 25.008 28.5703 23.8046 28.5703 22.3302V20.7204C28.5783 17.1661 25.6933 14.2891 22.147 14.2891ZM9.65891 13.54C9.01339 12.8945 8.12082 12.504 7.14058 12.504H3.57029C1.60185 12.504 0 14.1058 0 16.0743V17.8594C0 18.8476 0.79694 19.6446 1.78515 19.6446H5.45904C5.81766 16.9987 7.41154 14.7753 9.65891 13.54Z" fill="#666666"/>
</g>
<defs>
<clipPath id="clip0_1145_1074">
<rect width="35.7188" height="25" fill="white"/>
</clipPath>
</defs>
</svg>
