<svg width="12" height="13" viewBox="0 0 12 13" fill="none" xmlns="http://www.w3.org/2000/svg">
<path d="M11.1822 9.76C10.9222 8.88 10.5522 8.18 10.0822 7.64C9.56216 7.04 8.93216 6.63 8.23216 6.37C7.55216 6.94 6.68216 7.28 5.73216 7.28C4.78216 7.28 3.91216 6.94 3.23216 6.37C2.67216 6.59 2.15216 6.9 1.69216 7.33C1.09216 7.91 0.612161 8.69 0.302161 9.74C0.0621615 10.57 0.00216144 11.51 0.00216144 11.51C-0.0378386 12.19 0.482161 12.75 1.16216 12.75H10.3122C10.9922 12.75 11.5222 12.19 11.4722 11.51C11.4822 11.51 11.4222 10.58 11.1822 9.76Z" fill="#CCCCCB"/>
<path d="M5.74217 6.78C7.61217 6.78 9.13217 5.26 9.13217 3.39C9.13217 1.52 7.61217 0 5.74217 0C3.87217 0 2.35217 1.52 2.35217 3.39C2.35217 5.27 3.87217 6.78 5.74217 6.78Z" fill="#CCCCCB"/>
</svg>
